<svg version="1.1" xmlns="http://www.w3.org/2000/svg"
    viewBox="0 0 343.264 46.53155554199219">
    <g>
        <g>
            <rect fill="#FFFFFF" width="0" height="0" />
        </g>
        <g transform="translate(16,0)">
            <path fill="currentColor"
                d="M13.57 11.74L13.57 11.74Q12.90 12.06 12.22 11.81L12.22 11.81Q11.94 12.13 11.49 11.94L11.49 11.94L12.70 13.25Q13.50 13.79 14.45 14.29Q15.39 14.78 15.58 14.93Q15.78 15.07 16.16 15.36L16.16 15.36Q15.46 15.62 15.01 15.78Q14.56 15.94 13.28 16.30Q12 16.67 10.24 17.46Q8.48 18.24 7.71 18.24Q6.94 18.24 5.89 18.30L5.89 18.30L5.79 18.43L5.12 18.50Q5.47 18.66 5.78 18.77Q6.08 18.88 6.67 19.23Q7.26 19.58 7.84 19.62Q8.42 19.65 8.80 19.54Q9.18 19.42 9.73 19.15Q10.27 18.88 11.50 18.46Q12.74 18.05 12.93 18.05L12.93 18.05Q12.90 18.11 12.91 18.22Q12.93 18.34 12.50 19.38Q12.06 20.42 12 21.14Q11.94 21.86 11.65 23.23L11.65 23.23Q10.40 24.42 9.76 24.90Q9.12 25.38 9.04 25.41Q8.96 25.44 8.86 25.44L8.86 25.44L8.32 26.02Q7.71 26.46 7.46 26.67Q7.20 26.88 7.10 26.88Q7.01 26.88 6.88 26.85L6.88 26.85L7.07 26.02Q6.56 26.56 6.30 27.26L6.30 27.26Q6.40 27.33 6.48 27.39Q6.56 27.46 6.51 27.55Q6.46 27.65 6.46 27.90L6.46 27.90L6.75 28.10Q7.81 27.90 8.80 27.26L8.80 27.26Q9.09 28.90 9.17 29.60Q9.25 30.30 9.44 30.78Q9.63 31.26 9.73 31.38Q9.82 31.49 10.02 31.71L10.02 31.71L10.66 31.33Q11.17 30.50 11.41 30.11Q11.65 29.73 11.94 29.02Q12.22 28.32 12.27 27.87Q12.32 27.42 12.42 26.50L12.42 26.50Q12.61 26.75 12.78 26.94Q12.96 27.14 13.38 28.16Q13.79 29.18 13.92 29.38Q14.05 29.57 14.02 29.66Q13.98 29.76 14.16 29.89Q14.34 30.02 14.43 30.16Q14.53 30.30 14.72 30.53L14.72 30.53L15.78 31.10Q15.87 30.88 15.97 30.75Q16.06 30.62 15.95 30.22Q15.84 29.82 15.63 29.23Q15.42 28.64 15.14 28.14Q14.85 27.65 14.67 26.96Q14.50 26.27 14.51 26.08Q14.53 25.89 14.56 25.60L14.56 25.60L14.27 25.60L13.89 26.30L13.60 25.98L13.76 25.73L14.43 25.25L15.26 24.19Q15.71 23.84 16.62 23.17Q17.54 22.50 17.70 22.46L17.70 22.46Q17.82 22.66 17.95 22.77Q18.08 22.88 18.02 23.30Q17.95 23.71 17.89 23.90Q17.82 24.10 17.70 24.45L17.70 24.45Q16.54 25.02 16 25.28Q15.46 25.54 15.28 25.57Q15.10 25.60 14.85 25.60L14.85 25.60Q15.39 25.79 15.68 25.89Q15.97 25.98 16.21 25.95Q16.45 25.92 16.66 25.82Q16.86 25.73 17.01 25.71Q17.15 25.70 17.34 25.70L17.34 25.70Q17.31 25.95 17.31 26.11Q17.31 26.27 17.15 26.58Q16.99 26.88 16.64 27.71L16.64 27.71L16.38 27.94L16.29 28.42Q16.42 28.48 16.50 28.53Q16.58 28.58 16.86 28.61Q17.15 28.64 17.33 28.51Q17.50 28.38 17.79 28.13L17.79 28.13Q18.11 27.30 18.69 26.53L18.69 26.53Q19.81 27.46 20.32 27.86Q20.83 28.26 21.18 28.32Q21.54 28.38 21.65 28.35Q21.76 28.32 21.86 28.26L21.86 28.26Q21.95 28.03 21.98 27.94Q22.02 27.84 21.97 27.73Q21.92 27.62 21.86 27.26L21.86 27.26Q21.66 27.10 21.55 26.98Q21.44 26.85 20.98 26.62Q20.51 26.40 20.10 26.34Q19.68 26.27 18.94 26.11L18.94 26.11Q19.10 25.41 19.52 24.80L19.52 24.80Q20.38 24.58 20.86 24.38Q21.34 24.19 22.02 24.13Q22.69 24.06 22.91 24.18Q23.14 24.29 23.46 24.45L23.46 24.45Q23.39 25.25 23.39 25.71Q23.39 26.18 23.01 27.52Q22.62 28.86 22.37 29.57L22.37 29.57Q22.30 29.60 22.22 29.60Q22.14 29.60 21.71 29.47Q21.28 29.34 20.88 29.09Q20.48 28.83 19.71 28.26L19.71 28.26Q19.90 28.61 19.98 28.75Q20.06 28.90 20.29 29.09Q20.51 29.28 20.59 29.62Q20.67 29.95 21.07 30.34Q21.47 30.72 22.30 31.97L22.30 31.97L22.56 32.06L22.82 31.90Q23.39 31.17 23.62 30.94Q23.84 30.72 23.90 30.53Q23.97 30.34 24.22 30.13Q24.48 29.92 24.77 29.36Q25.06 28.80 25.06 28.51Q25.06 28.22 25.25 27.94Q25.44 27.65 25.70 26.88Q25.95 26.11 26.27 25.54Q26.59 24.96 26.78 24.75Q26.98 24.54 26.94 24.27Q26.91 24 26.83 23.90Q26.75 23.81 26.62 23.58L26.62 23.58Q26.56 23.46 26.42 23.34Q26.27 23.23 25.54 23.06Q24.80 22.88 23.81 22.88Q22.82 22.88 21.94 23.07Q21.06 23.26 20.67 23.38Q20.29 23.49 19.81 23.68L19.81 23.68Q19.81 23.42 19.84 23.33Q19.87 23.23 19.78 23.14Q19.68 23.04 19.55 22.82L19.55 22.82Q19.04 22.46 18.82 22.32Q18.59 22.18 18.48 22.16Q18.37 22.14 18.18 22.11L18.18 22.11L18.21 21.95Q18.69 21.60 18.96 21.39Q19.23 21.18 19.81 20.96Q20.38 20.74 21.73 19.97L21.73 19.97Q21.76 19.74 21.81 19.65Q21.86 19.55 21.84 19.36Q21.82 19.17 21.70 19.09Q21.57 19.01 21.44 18.82L21.44 18.82Q20.96 18.85 20.77 18.86Q20.58 18.88 20.40 18.78Q20.22 18.69 19.73 18.85Q19.23 19.01 18.88 19.34Q18.53 19.68 17.58 20Q16.64 20.32 16.24 20.53Q15.84 20.74 15.62 20.77Q15.39 20.80 14.94 20.93L14.94 20.93L14.72 20.74L14.75 21.22Q15.01 21.34 15.14 21.41Q15.26 21.47 15.55 21.50Q15.84 21.54 16.19 21.41Q16.54 21.28 16.99 21.23Q17.44 21.18 17.57 21.15Q17.70 21.12 17.82 21.12L17.82 21.12L14.30 24.83Q13.95 25.02 13.74 25.18Q13.54 25.34 13.12 25.23Q12.70 25.12 12.58 24.99L12.58 24.99Q12.64 23.97 12.67 23.60Q12.70 23.23 12.67 22.94Q12.64 22.66 12.74 22.27Q12.83 21.89 12.83 21.15Q12.83 20.42 12.96 20.08Q13.09 19.74 13.18 19.55Q13.28 19.36 13.30 19.18Q13.31 19.01 13.38 18.59L13.38 18.59Q14.14 17.92 14.69 17.46Q15.23 16.99 16.72 16.70Q18.21 16.42 18.62 16.18Q19.04 15.94 19.38 15.86Q19.71 15.78 20.34 15.74Q20.96 15.71 21.95 15.52Q22.94 15.33 23.20 15.25Q23.46 15.17 23.74 15.01L23.74 15.01Q23.84 14.75 23.87 14.62Q23.90 14.50 23.87 14.37Q23.84 14.24 23.74 13.98L23.74 13.98Q23.58 13.89 23.47 13.81Q23.36 13.73 22.94 13.62Q22.53 13.50 22.05 13.49Q21.57 13.47 21.23 13.54Q20.90 13.60 20.38 13.73L20.38 13.73L20.38 13.98Q19.46 14.30 18.90 14.48Q18.34 14.66 18.11 14.66L18.11 14.66L18.08 14.56Q18.11 14.37 18.16 14.29Q18.21 14.21 18.18 14.02Q18.14 13.82 18.18 13.58Q18.21 13.34 17.95 13.18Q17.70 13.02 17.31 12.48L17.31 12.48Q16.48 12.19 16.03 12.05Q15.58 11.90 15.02 11.82Q14.46 11.74 14.21 11.76Q13.95 11.78 13.57 11.74ZM8.19 20.45L8.19 20.45L8.03 20.77Q8.13 20.99 8.42 20.99L8.42 20.99Q8.61 21.28 8.86 21.60Q9.12 21.92 9.04 22.27Q8.96 22.62 8.83 22.85Q8.70 23.07 8.38 23.71L8.38 23.71Q8.54 23.62 9.12 23.18Q9.70 22.75 10.06 22.54Q10.43 22.34 10.72 22.27L10.72 22.27Q10.72 21.92 10.75 21.79Q10.78 21.66 10.72 21.58Q10.66 21.50 10.53 21.31L10.53 21.31Q10.02 21.09 9.68 20.99Q9.34 20.90 8.86 20.70Q8.38 20.51 8.19 20.45ZM11.26 24.58L11.42 24.48Q11.26 25.92 11.23 26.48Q11.20 27.04 11.06 27.42Q10.91 27.81 10.69 28.67L10.69 28.67L10.50 28.77Q10.24 28.42 10.13 28.22Q10.02 28.03 9.87 27.78Q9.73 27.52 9.44 26.88L9.44 26.88Q9.57 26.69 9.94 26.26Q10.30 25.82 10.58 25.57Q10.85 25.31 11.26 24.58L11.26 24.58Z" />
        </g>
        <g transform="translate(62.751999999999995,0)">
            <path fill="currentColor"
                d="M20.48 11.55L20.48 11.55Q20.35 11.68 20.26 11.71Q20.16 11.74 19.92 11.74Q19.68 11.74 19.39 11.65Q19.10 11.55 18.88 11.63Q18.66 11.71 18.53 11.78L18.53 11.78Q18.56 12.03 18.46 12.22L18.46 12.22L18.78 12.29L19.42 13.02L19.97 13.28Q20.06 14.05 20.11 14.48Q20.16 14.91 20.14 15.84Q20.13 16.77 20.22 17.60Q20.32 18.43 20.48 20.32L20.48 20.32L20.35 20.42L16.61 22.02L16.48 21.92Q16.99 20.90 17.98 20.10L17.98 20.10Q17.89 19.90 17.89 19.78Q17.89 19.65 17.78 19.62Q17.66 19.58 17.57 19.39L17.57 19.39Q17.09 19.23 16.51 19.15Q15.94 19.07 15.74 19.07Q15.55 19.07 15.46 19.04L15.46 19.04L15.33 19.23Q15.01 19.36 14.82 19.42L14.82 19.42Q14.78 19.52 14.54 19.78Q14.30 20.03 14.24 20.30Q14.18 20.58 14.10 20.67Q14.02 20.77 13.92 20.85Q13.82 20.93 13.66 21.12L13.66 21.12L11.90 22.69Q11.84 22.27 11.84 22.06Q11.84 21.86 11.87 21.58Q11.90 21.31 11.90 21.06Q11.90 20.80 11.81 20.32L11.81 20.32Q12.70 19.81 13.79 19.46L13.79 19.46Q13.82 19.26 13.90 19.22Q13.98 19.17 14.05 18.99Q14.11 18.82 14.03 18.69Q13.95 18.56 13.86 18.30L13.86 18.30Q12.90 18.43 11.90 18.27L11.90 18.27Q11.87 18.18 11.84 18.10Q11.81 18.02 11.86 17.62Q11.90 17.22 11.90 16.75Q11.90 16.29 12 15.98Q12.10 15.68 12.11 15.42Q12.13 15.17 12.27 14.94Q12.42 14.72 12.67 14.18L12.67 14.18L12.29 13.63Q11.49 13.60 11.09 13.54Q10.69 13.47 10.53 13.58Q10.37 13.70 10.24 13.68Q10.11 13.66 9.87 13.81Q9.63 13.95 9.33 14.06Q9.02 14.18 8.91 14.13Q8.80 14.08 8.61 14.02L8.61 14.02L8.96 14.46L9.98 15.01Q10.08 16.19 10.14 16.74Q10.21 17.28 10.24 18.03Q10.27 18.78 10.30 19.14L10.30 19.14Q10.14 19.23 10.05 19.30Q9.95 19.36 8.21 19.89Q6.46 20.42 5.55 20.78Q4.64 21.15 4.10 21.34Q3.55 21.54 3.39 21.65Q3.23 21.76 2.98 21.89L2.98 21.89L3.07 21.95Q3.26 22.05 3.38 22.08Q3.49 22.11 3.68 22.03Q3.87 21.95 4.30 22.21Q4.74 22.46 5.17 22.56Q5.60 22.66 5.84 22.56Q6.08 22.46 6.43 22.40L6.43 22.40L6.56 22.24Q7.39 21.86 7.79 21.74Q8.19 21.63 8.56 21.47Q8.93 21.31 9.23 21.23Q9.54 21.15 9.95 20.93L9.95 20.93L9.98 20.99Q7.04 24.74 6.67 25.26Q6.30 25.79 5.76 26.66L5.76 26.66L5.54 26.62Q5.47 26.75 5.33 27.02Q5.18 27.30 5.20 27.36Q5.22 27.42 5.15 27.52L5.15 27.52Q5.34 27.71 5.31 28.03L5.31 28.03L5.50 28.16Q8.64 26.91 9.20 26.43Q9.76 25.95 10.66 25.18L10.66 25.18Q10.72 26.53 10.78 27.02Q10.85 27.52 10.82 27.79Q10.78 28.06 10.75 28.64L10.75 28.64Q9.82 28.35 9.12 27.68L9.12 27.68L8.99 27.81Q9.63 29.31 10.69 30.59L10.69 30.59Q10.98 31.04 11.49 31.14L11.49 31.14Q11.52 30.98 11.66 30.83Q11.81 30.69 11.82 30.38Q11.84 30.08 12.02 29.86Q12.19 29.63 12.16 29.09Q12.13 28.54 12.18 28.21Q12.22 27.87 12.24 27.39Q12.26 26.91 12.22 26.83Q12.19 26.75 12.13 26.62L12.13 26.62Q12.29 26.53 12.35 26.53Q12.42 26.53 12.62 26.53Q12.83 26.53 13.18 26.35Q13.54 26.18 13.87 25.84Q14.21 25.50 14.32 25.42Q14.43 25.34 14.59 25.22L14.59 25.22L14.94 24.90Q15.26 24.99 16.16 25.25Q17.06 25.50 17.34 25.68Q17.63 25.86 17.74 25.89Q17.86 25.92 18.05 25.92L18.05 25.92L17.89 26.08L16.99 26.62Q16.64 26.94 16.51 27.39L16.51 27.39Q16.93 27.30 17.98 27.17Q19.04 27.04 19.31 26.98Q19.58 26.91 19.74 26.91L19.74 26.91L20.29 26.37Q20.19 26.14 20.19 26.05Q20.19 25.95 20.08 25.90Q19.97 25.86 19.87 25.70L19.87 25.70Q19.20 25.60 18.59 25.76L18.59 25.76Q18.62 25.57 18.72 25.31L18.72 25.31L18.98 25.15Q19.04 24.99 19.07 24.90Q19.10 24.80 18.98 24.69Q18.85 24.58 18.72 24.22L18.72 24.22Q18.18 23.94 17.92 23.78Q17.66 23.62 17.25 23.54Q16.83 23.46 15.90 23.26L15.90 23.26L16.35 22.27Q16.93 22.30 17.30 22.37Q17.66 22.43 18.34 22.18Q19.01 21.92 20.45 21.47L20.45 21.47Q21.09 25.70 21.28 29.92L21.28 29.92Q21.12 29.95 20.94 29.95Q20.77 29.95 20.34 29.86Q19.90 29.76 19.33 29.50Q18.75 29.25 18.42 29.10Q18.08 28.96 17.63 28.64L17.63 28.64Q17.57 28.77 17.60 28.86L17.60 28.86L17.22 29.06L17.28 29.22L17.41 29.22L17.82 29.70Q18.05 29.82 18.22 29.90Q18.40 29.98 18.99 30.66Q19.58 31.33 20.42 31.79Q21.25 32.26 21.46 32.27Q21.66 32.29 21.89 32.35L21.89 32.35L22.66 31.74Q22.75 31.33 22.85 31.18Q22.94 31.04 22.96 30.80Q22.98 30.56 23.15 30.14Q23.33 29.73 23.15 28.46Q22.98 27.20 22.82 26.58Q22.66 25.95 22.74 25.66Q22.82 25.38 22.69 25.04Q22.56 24.70 22.58 24.42Q22.59 24.13 22.45 23.60Q22.30 23.07 22.34 22.70Q22.37 22.34 22.21 21.90Q22.05 21.47 22.06 21.31Q22.08 21.15 22.18 20.90L22.18 20.90Q23.55 20.51 24.32 20.35Q25.09 20.19 25.78 20.10Q26.46 20 27.30 19.90Q28.13 19.81 28.35 19.76Q28.58 19.71 28.99 19.62L28.99 19.62Q29.38 19.04 29.57 18.83Q29.76 18.62 29.78 18.45Q29.79 18.27 29.73 18.22Q29.66 18.18 29.57 18.05L29.57 18.05Q29.12 17.98 28.82 17.92Q28.51 17.86 27.90 17.92Q27.30 17.98 27.15 17.95Q27.01 17.92 26.82 18.10Q26.62 18.27 25.79 18.43Q24.96 18.59 24.19 18.88Q23.42 19.17 22.02 19.74L22.02 19.74Q21.89 19.23 21.78 17.84Q21.66 16.45 21.74 16.19Q21.82 15.94 21.78 15.76Q21.73 15.58 21.81 15.22Q21.89 14.85 21.81 14.32Q21.73 13.79 21.79 13.46Q21.86 13.12 21.95 12.96Q22.05 12.80 22.27 12.42L22.27 12.42L21.79 11.94Q21.60 11.87 21.44 11.86Q21.28 11.84 21.12 11.76Q20.96 11.68 20.82 11.66Q20.67 11.65 20.48 11.55ZM13.44 21.89L14.40 21.44Q14.24 22.40 13.95 23.26L13.95 23.26L12.19 23.23L13.44 21.89ZM10.46 23.10L10.53 23.17L10.53 24.06Q9.41 25.09 8.93 25.49Q8.45 25.89 8.22 26Q8 26.11 7.65 26.30L7.65 26.30Q7.65 26.11 7.86 25.94Q8.06 25.76 8.32 25.46Q8.58 25.15 8.85 24.90Q9.12 24.64 9.41 24.13L9.41 24.13L10.46 23.10ZM12.03 23.65L12.06 23.68L13.57 24.35Q13.28 25.02 13.17 25.31Q13.06 25.60 12.86 25.76Q12.67 25.92 12.32 26.30L12.32 26.30L12.19 26.30Q12.19 25.79 12.21 25.54Q12.22 25.28 12.11 24.80Q12 24.32 12 24.14Q12 23.97 12.03 23.65L12.03 23.65Z" />
        </g>
        <g transform="translate(109.50399999999999,0)">
            <path fill="currentColor"
                d="M17.86 11.49L17.86 11.49Q17.25 11.68 16.96 11.74Q16.67 11.81 16.58 11.90Q16.48 12 16.30 12Q16.13 12 15.71 12.06L15.71 12.06Q15.71 12.16 15.68 12.21Q15.65 12.26 15.49 12.42Q15.33 12.58 14.94 12.96L14.94 12.96Q13.92 13.70 12.99 14.40L12.99 14.40Q12.58 14.18 12.29 13.98Q12 13.79 11.25 13.68Q10.50 13.57 10.38 13.65Q10.27 13.73 10.11 13.79L10.11 13.79L10.24 13.95L10.14 14.14L11.23 15.65Q11.58 15.90 11.74 16.06Q11.90 16.22 12.62 16.50Q13.34 16.77 13.46 16.69Q13.57 16.61 13.76 16.58L13.76 16.58Q13.92 16.45 13.97 16.37Q14.02 16.29 14.05 16.11Q14.08 15.94 13.95 15.62Q13.82 15.30 14.14 14.82Q14.46 14.34 14.72 14.08Q14.98 13.82 15.46 13.38L15.46 13.38Q15.84 13.15 16.03 13.07Q16.22 12.99 16.50 12.99Q16.77 12.99 16.90 13.09Q17.02 13.18 17.25 13.31L17.25 13.31Q17.18 13.57 17.17 13.79Q17.15 14.02 16.86 14.77Q16.58 15.52 16.24 15.87Q15.90 16.22 15.36 16.90L15.36 16.90Q15.07 17.18 14.88 17.36Q14.69 17.54 13.87 17.66Q13.06 17.79 12.03 18.18Q11.01 18.56 8.48 19.30Q5.95 20.03 5.14 20.10Q4.32 20.16 4.14 20.13Q3.97 20.10 3.78 20.03L3.78 20.03Q3.94 19.74 4.22 19.49L4.22 19.49L3.33 19.58Q3.01 19.87 2.85 20.16L2.85 20.16L2.40 20.54L2.40 20.70Q3.01 20.70 3.41 20.69Q3.81 20.67 4.40 21.02Q4.99 21.38 5.41 21.33Q5.82 21.28 6.13 21.17Q6.43 21.06 8.56 20.42Q10.69 19.78 11.17 19.66Q11.65 19.55 11.92 19.47Q12.19 19.39 12.64 19.20L12.64 19.20L12.77 19.30L12.67 19.49Q13.18 19.30 13.55 19.23Q13.92 19.17 14.22 18.83Q14.53 18.50 14.99 18.51Q15.46 18.53 16.70 18.08Q17.95 17.63 20.78 17.30Q23.62 16.96 24.90 16.99Q26.18 17.02 27.09 16.93Q28 16.83 28.11 16.75Q28.22 16.67 28.35 16.72Q28.48 16.77 28.51 16.72Q28.54 16.67 28.61 16.64L28.61 16.64Q28.74 16.38 28.82 16.24Q28.90 16.10 28.85 15.97Q28.80 15.84 28.69 15.78Q28.58 15.71 28.42 15.52L28.42 15.52Q28.10 15.30 27.46 15.12Q26.82 14.94 26.32 14.90Q25.82 14.85 25.66 14.72L25.66 14.72Q25.34 14.88 25.02 14.98Q24.70 15.07 21.84 15.57Q18.98 16.06 18.61 16.19Q18.24 16.32 17.82 16.45L17.82 16.45L18.82 15.26Q19.33 14.78 20.02 14.38Q20.70 13.98 21.09 13.60L21.09 13.60Q21.09 13.44 21.14 13.41Q21.18 13.38 21.06 13.26Q20.93 13.15 20.80 12.86L20.80 12.86Q20.13 12.45 19.82 12.22Q19.52 12 19.12 11.92Q18.72 11.84 17.86 11.49ZM19.55 18.24L19.55 18.24Q19.52 18.40 19.52 18.48Q19.52 18.56 19.63 18.72Q19.74 18.88 19.82 19.39Q19.90 19.90 19.87 20.35Q19.84 20.80 19.94 21.12Q20.03 21.44 19.89 21.79Q19.74 22.14 19.92 23.22Q20.10 24.29 20.10 24.80Q20.10 25.31 20.22 25.66Q20.35 26.02 20.34 26.54Q20.32 27.07 20.38 27.71Q20.45 28.35 20.45 29.14Q20.45 29.92 20.29 30.38Q20.13 30.85 19.87 31.94L19.87 31.94Q19.71 32 19.60 32.05Q19.49 32.10 19.14 32.05Q18.78 32 18.45 31.92Q18.11 31.84 17.41 31.58L17.41 31.58Q17.60 31.84 17.66 32.16L17.66 32.16Q20.35 34.43 20.59 34.46Q20.83 34.50 20.91 34.45Q20.99 34.40 21.18 34.27L21.18 34.27Q21.63 33.66 21.89 33.41Q22.14 33.15 22.21 32.69Q22.27 32.22 22.24 31.84Q22.21 31.46 22.30 30.80Q22.40 30.14 22.38 29.17Q22.37 28.19 22.27 27.70Q22.18 27.20 22.16 26.78Q22.14 26.37 22.06 26Q21.98 25.63 21.98 25.25Q21.98 24.86 21.89 24.29Q21.79 23.71 21.81 22.10Q21.82 20.48 21.76 20.21Q21.70 19.94 21.76 19.66Q21.82 19.39 21.71 19.28Q21.60 19.17 21.41 18.88L21.41 18.88Q21.22 18.78 21.04 18.74Q20.86 18.69 20.66 18.56Q20.45 18.43 20.26 18.40Q20.06 18.37 19.92 18.30Q19.78 18.24 19.55 18.24ZM13.44 20.45L13.44 20.45Q13.15 20.70 12.77 20.70L12.77 20.70L12.61 20.86Q12 21.12 11.65 21.25Q11.30 21.38 10.93 21.62Q10.56 21.86 9.73 22.34L9.73 22.34L10.18 22.66Q10.24 23.97 10.30 24.46Q10.37 24.96 10.22 25.41Q10.08 25.86 10.10 26.14Q10.11 26.43 10.10 26.75Q10.08 27.07 10.02 27.23Q9.95 27.39 9.79 27.65L9.79 27.65Q10.34 28.29 10.56 28.99L10.56 28.99L11.10 29.47L11.33 29.34Q11.42 28.99 11.50 28.86Q11.58 28.74 11.62 28.46Q11.65 28.19 11.71 27.55L11.71 27.55Q12.06 27.46 12.24 27.44Q12.42 27.42 12.72 27.22Q13.02 27.01 13.70 26.56L13.70 26.56Q13.76 26.85 13.82 27.01Q13.89 27.17 13.92 27.54Q13.95 27.90 14.14 28.80L14.14 28.80L13.95 28.96Q13.70 28.90 13.54 28.83Q13.38 28.77 13.09 28.58Q12.80 28.38 12.16 28L12.16 28L12.48 28.61L13.50 29.54L14.75 30.82L14.98 30.85Q15.30 30.24 15.47 29.98Q15.65 29.73 15.68 29.12Q15.71 28.51 15.62 27.49Q15.52 26.46 15.44 25.84Q15.36 25.22 15.39 24.88Q15.42 24.54 15.65 24.32Q15.87 24.10 15.97 23.79Q16.06 23.49 16.14 23.34Q16.22 23.20 16.45 22.94L16.45 22.94Q15.84 23.39 15.30 23.90L15.30 23.90Q15.17 23.33 15.14 23.02Q15.10 22.72 15.17 22.26Q15.23 21.79 15.33 21.62Q15.42 21.44 15.55 21.22L15.55 21.22L15.46 20.83Q15.14 20.67 14.86 20.66Q14.59 20.64 14.08 20.53Q13.57 20.42 13.44 20.45ZM17.02 21.18L17.02 21.18Q16.99 21.60 16.91 23.07Q16.83 24.54 17.04 24.94Q17.25 25.34 17.34 25.50Q17.44 25.66 17.66 25.82L17.66 25.82L17.82 25.89L18.02 26.30L18.37 26.30Q18.50 25.89 18.56 25.62Q18.62 25.34 18.62 24.38Q18.62 23.42 18.46 22.90Q18.30 22.37 18.21 21.98L18.21 21.98Q17.92 21.70 17.79 21.57Q17.66 21.44 17.52 21.38Q17.38 21.31 17.02 21.18ZM13.15 21.76L13.15 21.76Q13.15 21.82 13.23 21.84Q13.31 21.86 13.31 22.24Q13.31 22.62 13.41 23.55L13.41 23.55Q12.54 23.42 11.78 23.14L11.78 23.14L11.52 23.30Q11.52 23.36 11.52 23.42Q11.52 23.49 11.68 23.62Q11.84 23.74 11.86 23.90Q11.87 24.06 11.79 24.27Q11.71 24.48 11.58 25.02L11.58 25.02L11.46 25.06Q11.39 24.16 11.25 23.57Q11.10 22.98 11.09 22.80Q11.07 22.62 11.07 22.40L11.07 22.40Q11.87 22.05 12.21 21.90Q12.54 21.76 12.70 21.78Q12.86 21.79 13.15 21.76ZM13.50 24.26L13.54 24.29L13.57 25.31Q13.12 25.66 12.93 25.82Q12.74 25.98 12.56 26.03Q12.38 26.08 12.10 26.21L12.10 26.21Q12.38 25.31 12.96 24.54L12.96 24.54L13.50 24.26Z" />
        </g>
        <g transform="translate(156.256,0)">
            <path fill="currentColor"
                d="M14.69 11.10L14.69 11.10Q14.69 11.20 14.66 11.25Q14.62 11.30 14.62 11.41Q14.62 11.52 14.46 11.68Q14.30 11.84 14.30 12.02Q14.30 12.19 14.30 12.58L14.30 12.58L14.56 12.77Q14.69 12.96 14.82 13.07Q14.94 13.18 15.01 14.06Q15.07 14.94 15.10 15.82Q15.14 16.70 15.10 16.88Q15.07 17.06 15.07 17.34L15.07 17.34Q14.82 16.80 14.75 16.56Q14.69 16.32 14.53 16.21Q14.37 16.10 14.21 15.87L14.21 15.87Q13.47 15.49 12.99 15.26Q12.51 15.04 11.52 14.86Q10.53 14.69 10.30 14.61Q10.08 14.53 9.70 14.37L9.70 14.37L9.63 14.18L9.54 14.21Q9.54 14.30 9.54 14.35Q9.54 14.40 9.63 14.50Q9.73 14.59 9.95 14.91L9.95 14.91L9.89 14.98L11.04 15.81L11.36 16.22Q11.30 16.64 11.28 16.83Q11.26 17.02 11.18 17.14Q11.10 17.25 10.91 17.44L10.91 17.44L10.75 17.57L10.75 17.73Q10.91 17.76 11.04 17.76Q11.17 17.76 11.49 17.65Q11.81 17.54 12.26 17.58Q12.70 17.63 12.85 17.79Q12.99 17.95 13.22 17.98Q13.44 18.02 13.86 18.21L13.86 18.21Q13.98 18.11 14.18 18.06Q14.37 18.02 14.50 17.97Q14.62 17.92 14.91 17.73L14.91 17.73L15.07 17.38Q15.10 18.24 15.14 18.72Q15.17 19.20 15.02 20.24Q14.88 21.28 14.85 22.05Q14.82 22.82 14.75 22.93Q14.69 23.04 14.59 23.30L14.59 23.30Q7.04 26.75 6.18 26.80Q5.31 26.85 4.98 26.77Q4.64 26.69 3.87 26.56L3.87 26.56L3.74 26.43L4.13 25.66Q3.84 26.02 3.49 26.02L3.49 26.02L3.39 26.11Q3.42 26.24 3.46 26.30Q3.49 26.37 3.46 26.46Q3.42 26.56 3.30 26.82L3.30 26.82L3.42 26.88Q3.74 26.94 3.95 26.91Q4.16 26.88 4.88 27.23Q5.60 27.58 6.11 27.60Q6.62 27.62 7.26 27.60Q7.90 27.58 9.87 26.75Q11.84 25.92 12.42 25.79Q12.99 25.66 14.05 25.22L14.05 25.22L14.14 25.31Q13.73 26.50 13.47 27.22Q13.22 27.94 11.26 31.07L11.26 31.07Q10.85 31.39 10.69 31.52Q10.53 31.65 10.40 31.71Q10.27 31.78 10.08 31.84L10.08 31.84Q10.46 31.84 10.69 31.82Q10.91 31.81 11.41 31.44Q11.90 31.07 12.30 30.98Q12.70 30.88 12.99 30.64Q13.28 30.40 13.44 30.35Q13.60 30.30 13.82 30.24L13.82 30.24Q14.24 29.73 14.46 29.54Q14.69 29.34 14.78 29.04Q14.88 28.74 15.09 28.53Q15.30 28.32 15.34 28.13Q15.39 27.94 15.58 27.76Q15.78 27.58 15.84 27.36Q15.90 27.14 16.10 26.98Q16.29 26.82 16.56 26.26Q16.83 25.70 16.86 25.49Q16.90 25.28 17.04 25.18Q17.18 25.09 17.18 24.91Q17.18 24.74 17.25 24.32L17.25 24.32Q17.41 24.16 17.55 24.11Q17.70 24.06 19.28 23.63Q20.86 23.20 21.95 23.09Q23.04 22.98 23.82 22.77Q24.61 22.56 25.63 22.51Q26.66 22.46 27.31 22.35Q27.97 22.24 28.30 21.95Q28.64 21.66 28.72 21.68Q28.80 21.70 28.90 21.66L28.90 21.66Q28.93 21.60 28.98 21.54Q29.02 21.47 29.01 21.39Q28.99 21.31 29.04 21.20Q29.09 21.09 29.18 20.99L29.18 20.99L28.54 20.26Q25.44 19.68 22.30 19.07L22.30 19.07L23.97 20.29Q19.68 21.47 19.07 21.66Q18.46 21.86 17.76 22.18L17.76 22.18Q17.89 21.18 17.97 20.80Q18.05 20.42 18.06 20.03Q18.08 19.65 18.05 19.30Q18.02 18.94 18.08 17.71Q18.14 16.48 18.10 14.38Q18.05 12.29 18.05 11.62L18.05 11.62Q17.09 11.33 16.16 11.14L16.16 11.14Q16.10 11.20 16.03 11.26Q15.97 11.33 15.66 11.38Q15.36 11.42 15.17 11.31Q14.98 11.20 14.88 11.17Q14.78 11.14 14.69 11.10ZM8.06 20.16L8.06 20.16L8 20.29L8.19 20.54L9.76 21.60L9.82 21.76L9.12 22.56L8.35 23.01L8.45 23.10Q8.67 23.14 8.90 23.15Q9.12 23.17 9.60 22.90Q10.08 22.62 10.67 22.59Q11.26 22.56 11.58 22.67Q11.90 22.78 12.05 22.78Q12.19 22.78 12.38 22.75L12.38 22.75Q12.61 22.46 12.74 22.37Q12.86 22.27 12.85 22.21Q12.83 22.14 12.86 22.02L12.86 22.02Q12.61 21.76 12.45 21.60Q12.29 21.44 11.78 21.09Q11.26 20.74 10.05 20.59Q8.83 20.45 8.59 20.38Q8.35 20.32 8.06 20.16ZM18.05 27.07L18.05 27.07L18.02 27.23L18.82 27.97Q19.20 28.38 19.49 28.64Q19.78 28.90 20.88 30.46Q21.98 32.03 22.69 33.28L22.69 33.28Q23.01 33.54 23.17 33.70Q23.33 33.86 23.78 33.84Q24.22 33.82 24.38 33.73L24.38 33.73Q24.42 33.47 24.54 33.23Q24.67 32.99 24.58 32.70Q24.48 32.42 24.59 32.13Q24.70 31.84 24.64 31.65Q24.58 31.46 24.62 31.31Q24.67 31.17 24.58 30.98Q24.48 30.78 24.32 30.66Q24.16 30.53 23.94 30.30Q23.71 30.08 23.07 29.38L23.07 29.38Q22.85 29.25 21.50 28.50Q20.16 27.74 19.15 27.46Q18.14 27.17 18.05 27.07Z" />
        </g>
        <g transform="translate(203.008,0)">
            <path fill="currentColor"
                d="M25.92 12.19L25.92 12.19Q25.34 12.35 25.12 12.37Q24.90 12.38 24.66 12.51Q24.42 12.64 24.02 12.69Q23.62 12.74 23.28 12.96Q22.94 13.18 21.63 13.34Q20.32 13.50 17.17 14.56Q14.02 15.62 11.46 16.29Q8.90 16.96 6.94 17.49Q4.99 18.02 4.56 17.95Q4.13 17.89 4.05 17.84Q3.97 17.79 3.74 17.70L3.74 17.70Q3.62 17.28 3.90 16.99L3.90 16.99Q3.55 17.15 3.20 17.15L3.20 17.15L3.04 17.41L2.66 17.70Q2.85 18.11 2.93 18.30Q3.01 18.50 3.18 18.66Q3.36 18.82 3.74 19.23L3.74 19.23Q4 19.39 4.16 19.49Q4.32 19.58 4.75 19.57Q5.18 19.55 5.79 19.38Q6.40 19.20 7.34 18.99Q8.29 18.78 8.70 18.62Q9.12 18.46 9.50 18.40Q9.89 18.34 10.53 18.11Q11.17 17.89 11.82 17.84Q12.48 17.79 13.49 17.42Q14.50 17.06 16.37 16.83Q18.24 16.61 19.68 16.22Q21.12 15.84 21.76 15.82Q22.40 15.81 22.90 15.71Q23.39 15.62 24.24 15.57Q25.09 15.52 25.62 15.41Q26.14 15.30 26.59 15.22Q27.04 15.14 27.33 15.25Q27.62 15.36 27.84 15.28Q28.06 15.20 28.21 15.30Q28.35 15.39 28.61 15.28Q28.86 15.17 28.99 15.10L28.99 15.10Q28.99 14.94 29.01 14.91Q29.02 14.88 29.02 14.72Q29.02 14.56 28.83 14.22Q28.64 13.89 28.43 13.70Q28.22 13.50 27.78 13.12L27.78 13.12Q27.42 12.86 27.02 12.67Q26.62 12.48 26.43 12.43Q26.24 12.38 26.16 12.32Q26.08 12.26 25.92 12.19ZM15.17 17.76L15.17 17.76Q14.78 18.05 14.59 18.24Q14.40 18.43 13.94 18.56Q13.47 18.69 13.33 18.80Q13.18 18.91 12.96 19.07L12.96 19.07L12.99 19.42L12.80 19.52L13.06 19.81Q13.54 20.13 14.18 20.06L14.18 20.06Q13.95 20.61 13.49 21.58Q13.02 22.56 12.16 23.74Q11.30 24.93 9.65 26.62Q8 28.32 8 28.50Q8 28.67 8 28.90L8 28.90Q8.42 28.90 8.70 28.88Q8.99 28.86 9.76 28.18Q10.53 27.49 10.83 27.33Q11.14 27.17 11.55 26.85L11.55 26.85L11.68 26.72L12.06 26.37L12.51 25.98L13.34 25.31Q13.79 24.77 14 24.54Q14.21 24.32 14.24 24.18Q14.27 24.03 14.43 23.78L14.43 23.78L14.78 23.42L15.26 22.98Q15.68 23.04 16.66 22.99Q17.63 22.94 18.11 23.06Q18.59 23.17 19.30 23.33L19.30 23.33Q19.30 23.68 19.31 23.98Q19.33 24.29 18.83 25.39Q18.34 26.50 17.78 27.23Q17.22 27.97 16.98 28.24Q16.74 28.51 16.22 29.02L16.22 29.02Q15.74 29.38 15.46 29.60Q15.17 29.82 14.70 30.08Q14.24 30.34 13.89 30.18Q13.54 30.02 13.30 29.84Q13.06 29.66 12.61 29.25L12.61 29.25L11.87 28.03Q11.81 28.13 11.79 28.18Q11.78 28.22 11.81 28.34Q11.84 28.45 11.87 28.69Q11.90 28.93 11.98 29.26Q12.06 29.60 12.21 30.38Q12.35 31.17 12.38 32.06L12.38 32.06Q12.64 32.16 12.83 32.22Q13.02 32.29 13.65 32.26Q14.27 32.22 14.48 32.29Q14.69 32.35 14.83 32.24Q14.98 32.13 15.36 32.14Q15.74 32.16 16.67 31.66Q17.60 31.17 18.14 30.56Q18.69 29.95 18.85 29.84Q19.01 29.73 19.17 29.60L19.17 29.60Q19.39 29.34 19.47 29.22Q19.55 29.09 19.79 28.85Q20.03 28.61 20.37 27.95Q20.70 27.30 20.99 26.93Q21.28 26.56 21.41 26.22Q21.54 25.89 21.73 25.74Q21.92 25.60 21.97 25.42Q22.02 25.25 22.16 25.07Q22.30 24.90 22.32 24.72Q22.34 24.54 22.53 24.34Q22.72 24.13 22.85 23.74Q22.98 23.36 22.85 23.17Q22.72 22.98 22.46 22.59L22.46 22.59Q22.08 22.34 21.86 22.16Q21.63 21.98 21.26 21.94Q20.90 21.89 20.70 21.78Q20.51 21.66 20.32 21.63Q20.13 21.60 19.97 21.71Q19.81 21.82 19.44 21.87Q19.07 21.92 18.48 21.92Q17.89 21.92 17.38 22.03Q16.86 22.14 16 22.30L16 22.30L16.70 21.12Q16.86 20.93 17.22 20.72Q17.57 20.51 17.82 20.29L17.82 20.29Q17.86 20.06 17.90 19.94Q17.95 19.81 17.87 19.70Q17.79 19.58 17.66 19.33L17.66 19.33Q17.15 18.82 16.82 18.54Q16.48 18.27 15.86 18Q15.23 17.73 15.17 17.76Z" />
        </g>
        <g transform="translate(249.76000000000002,0)">
            <path fill="currentColor"
                d="M14.40 10.78L14.40 10.78Q13.54 10.94 12.70 10.94L12.70 10.94Q12.48 11.33 12.37 11.50Q12.26 11.68 12.27 11.79Q12.29 11.90 12.35 12.16L12.35 12.16L13.06 12.74Q13.09 13.44 13.17 13.89Q13.25 14.34 13.31 17.86L13.31 17.86Q13.12 17.98 12.96 18.08Q12.80 18.18 10.86 18.83Q8.93 19.49 8.08 19.65Q7.23 19.81 6.96 19.74Q6.69 19.68 6.27 19.58L6.27 19.58L6.34 20.16Q7.07 20.64 7.49 20.86Q7.90 21.09 8.43 21.18Q8.96 21.28 9.23 21.44Q9.50 21.60 9.81 21.65Q10.11 21.70 10.26 21.66Q10.40 21.63 10.56 21.57L10.56 21.57L10.72 21.44Q11.26 21.31 12.18 21.14Q13.09 20.96 13.47 20.93L13.47 20.93Q13.47 21.09 13.39 21.25Q13.31 21.41 12.40 22.42Q11.49 23.42 10.85 24.06Q10.21 24.70 9.06 25.98L9.06 25.98Q7.90 27.14 7.39 27.62Q6.88 28.10 6.69 28.18Q6.50 28.26 6.24 28.42L6.24 28.42L6.18 28.67Q6.50 28.64 6.77 28.59Q7.04 28.54 7.98 28.06Q8.93 27.58 9.36 27.42Q9.79 27.26 10 27.01Q10.21 26.75 10.53 26.66Q10.85 26.56 11.07 26.27Q11.30 25.98 11.44 25.89Q11.58 25.79 11.74 25.70L11.74 25.70L12.13 25.25L12.70 24.86L13.82 23.74Q13.86 23.94 13.92 24.05Q13.98 24.16 14.10 24.94Q14.21 25.73 14.24 27.04Q14.27 28.35 14.13 29.36Q13.98 30.37 13.94 30.59Q13.89 30.82 13.76 31.14L13.76 31.14Q13.50 31.23 13.38 31.25Q13.25 31.26 13.04 31.18Q12.83 31.10 12.42 30.98L12.42 30.98L12.26 30.78L12.03 30.85Q11.94 30.69 11.57 30.56Q11.20 30.43 10.85 30.18L10.85 30.18Q11.07 30.43 11.25 30.64Q11.42 30.85 11.46 30.88Q11.49 30.91 11.52 31.01L11.52 31.01Q11.97 31.42 12.27 31.58Q12.58 31.74 13.06 32.26Q13.54 32.77 14.02 32.99Q14.50 33.22 14.75 33.26Q15.01 33.31 15.14 33.22Q15.26 33.12 15.42 33.02L15.42 33.02Q15.49 32.93 15.52 32.86Q15.55 32.80 15.66 32.69Q15.78 32.58 16.05 32.14Q16.32 31.71 16.43 31.38Q16.54 31.04 16.58 30.64Q16.61 30.24 16.72 29.70Q16.83 29.15 16.69 28.70Q16.54 28.26 16.64 27.95Q16.74 27.65 16.78 27.20Q16.83 26.75 16.69 26.32Q16.54 25.89 16.58 25.73Q16.61 25.57 16.54 25.34L16.54 25.34Q17.98 25.70 18.77 25.82Q19.55 25.95 20.58 26.30Q21.60 26.66 22.48 27.17Q23.36 27.68 24.05 28.18Q24.74 28.67 25.25 28.86Q25.76 29.06 25.97 29.06Q26.18 29.06 26.56 29.06L26.56 29.06Q26.82 28.67 26.96 28.46Q27.10 28.26 27.14 27.82Q27.17 27.39 27.23 27.26Q27.30 27.14 27.23 27.04Q27.17 26.94 27.10 26.72L27.10 26.72Q26.72 26.34 26.53 26.14Q26.34 25.95 25.98 25.73Q25.63 25.50 25.22 25.42Q24.80 25.34 24.51 25.10Q24.22 24.86 23.49 24.69Q22.75 24.51 21.65 24.34Q20.54 24.16 19.26 24.14Q17.98 24.13 17.46 24.16Q16.93 24.19 16.26 24.22L16.26 24.22Q16.22 23.94 16.21 23.76Q16.19 23.58 16.22 23.23Q16.26 22.88 16.22 22.51Q16.19 22.14 16.21 21.98Q16.22 21.82 16.29 21.50L16.29 21.50L16.48 21.47Q16.48 21.28 16.50 21.18Q16.51 21.09 16.46 20.93Q16.42 20.77 16.38 20.59Q16.35 20.42 16.30 20.30Q16.26 20.19 16.29 19.97L16.29 19.97Q16.61 19.78 16.74 19.68Q16.86 19.58 17.14 19.38Q17.41 19.17 18.05 19.04Q18.69 18.91 19.01 18.69Q19.33 18.46 19.94 18.37Q20.54 18.27 21.33 18.18Q22.11 18.08 22.27 17.95Q22.43 17.82 22.51 17.84Q22.59 17.86 22.72 17.82L22.72 17.82Q22.98 17.57 23.12 17.46Q23.26 17.34 23.31 17.18Q23.36 17.02 23.34 16.96Q23.33 16.90 23.36 16.70L23.36 16.70Q22.98 16.51 22.72 16.34Q22.46 16.16 22 16.11Q21.54 16.06 21.26 16.10Q20.99 16.13 20.80 16Q20.61 15.87 20.14 16.10Q19.68 16.32 18.74 16.45Q17.79 16.58 17.31 16.69Q16.83 16.80 16.13 16.99L16.13 16.99Q16.19 16.77 16.27 16.46Q16.35 16.16 16.30 15.18Q16.26 14.21 16.43 13.68Q16.61 13.15 16.78 12.88Q16.96 12.61 17.34 11.87L17.34 11.87L17.18 11.62Q16.90 11.39 16.59 11.28Q16.29 11.17 16.14 11.07Q16 10.98 15.65 10.78L15.65 10.78L15.39 10.94Q14.91 10.82 14.40 10.78Z" />
        </g>
        <g transform="translate(296.512,0)">
            <path fill="currentColor"
                d="M14.30 10.34L14.30 10.34Q14.05 10.40 13.86 10.40Q13.66 10.40 13.36 10.59Q13.06 10.78 12.35 11.20L12.35 11.20L12.54 11.62L12.80 11.62L13.06 11.33L13.34 11.42Q13.41 11.81 13.39 12.06Q13.38 12.32 13.26 13.10Q13.15 13.89 12.96 14.82L12.96 14.82Q8.45 16.22 7.34 16.40Q6.24 16.58 5.92 16.54Q5.60 16.51 5.54 16.54Q5.47 16.58 5.34 16.61L5.34 16.61L5.25 16.67L4.90 16.61L5.06 16.86Q5.50 16.99 5.79 17.04Q6.08 17.09 6.56 17.34Q7.04 17.60 7.79 17.81Q8.54 18.02 9.54 17.66Q10.53 17.31 10.99 17.07Q11.46 16.83 11.78 16.80Q12.10 16.77 12.77 16.61L12.77 16.61Q12.70 17.38 12.72 17.63Q12.74 17.89 12.64 18.02Q12.54 18.14 12.45 18.43L12.45 18.43L12.13 18.59L11.90 18.50Q11.49 18.78 11.07 18.88L11.07 18.88L10.85 19.10L9.82 19.65L9.86 19.97L10.14 20.16Q10.27 20.16 10.35 20.11Q10.43 20.06 10.66 20.14Q10.88 20.22 11.18 20.16Q11.49 20.10 12.10 20L12.10 20Q11.97 20.70 11.94 20.98Q11.90 21.25 11.79 21.38Q11.68 21.50 11.58 21.79L11.58 21.79Q11.30 22.08 11.18 22.19Q11.07 22.30 10.98 22.30Q10.88 22.30 10.82 22.30L10.82 22.30L10.59 22.53Q10.18 22.72 9.76 22.72L9.76 22.72Q9.63 23.23 9.82 23.65L9.82 23.65Q10.37 23.84 10.91 23.68L10.91 23.68Q10.72 24.35 10.56 24.74Q10.40 25.12 9.95 25.97Q9.50 26.82 9.12 27.25Q8.74 27.68 8.10 28.61L8.10 28.61Q6.98 29.79 6.46 30.26Q5.95 30.72 5.41 31.07Q4.86 31.42 4.11 31.63Q3.36 31.84 3.14 31.84L3.14 31.84L3.23 32Q3.36 32.10 3.50 32.11Q3.65 32.13 4.69 31.89Q5.73 31.65 6.54 31.18Q7.36 30.72 7.90 30.38Q8.45 30.05 8.78 29.74Q9.12 29.44 9.38 29.20Q9.63 28.96 9.74 28.90Q9.86 28.83 10.02 28.70L10.02 28.70L10.08 28.54L10.27 28.38L11.01 27.52Q11.26 28.19 11.41 28.58Q11.55 28.96 11.78 29.74Q12 30.53 11.95 30.69Q11.90 30.85 11.92 30.90Q11.94 30.94 12 31.17L12 31.17L12.13 31.14L12.58 31.71Q12.42 32 12.64 32.22L12.64 32.22Q12.99 32.22 13.23 32.27Q13.47 32.32 14.08 32.16Q14.69 32 16.03 31.78L16.03 31.78Q16.38 32.83 17.25 33.63L17.25 33.63L17.79 33.73Q18.05 33.31 18.18 33.14Q18.30 32.96 18.45 32.45Q18.59 31.94 18.59 31.76Q18.59 31.58 18.69 31.36Q18.78 31.14 18.78 30.93Q18.78 30.72 18.86 30.50Q18.94 30.27 18.96 29.94Q18.98 29.60 18.91 29.26Q18.85 28.93 18.94 28.50Q19.04 28.06 19.09 27.55Q19.14 27.04 19.17 26.82Q19.20 26.59 19.30 26.14L19.30 26.14L19.46 26.08L21.34 28.22Q22.18 29.15 22.64 29.54Q23.10 29.92 23.70 30.24Q24.29 30.56 24.98 30.82Q25.66 31.07 26.42 31.18Q27.17 31.30 28.21 31.23Q29.25 31.17 29.66 30.93Q30.08 30.69 30.18 30.67Q30.27 30.66 30.40 30.62L30.40 30.62L30.30 30.24Q29.89 29.89 29.74 29.68Q29.60 29.47 29.01 29.33Q28.42 29.18 27.02 28.75Q25.63 28.32 23.73 26.83Q21.82 25.34 20.85 24.56Q19.87 23.78 19.34 23.31Q18.82 22.85 17.66 21.76L17.66 21.76Q17.89 21.70 18.14 21.65Q18.40 21.60 18.74 21.49Q19.07 21.38 19.42 21.31Q19.78 21.25 19.94 21.15Q20.10 21.06 20.32 20.96L20.32 20.96L20.35 20.67L20.13 20.51L19.94 20.35Q19.87 20.26 19.74 20.14Q19.62 20.03 18.58 20.05Q17.54 20.06 17.33 20.21Q17.12 20.35 16.99 20.32Q16.86 20.29 16.82 20.34Q16.77 20.38 16.67 20.38L16.67 20.38L16.58 20.64Q16.42 20.64 16.32 20.62Q16.22 20.61 16.05 20.67Q15.87 20.74 15.28 20.51Q14.69 20.29 14.64 20.32Q14.59 20.35 14.50 20.35L14.50 20.35Q14.50 20.61 14.69 20.74L14.69 20.74Q15.01 20.74 15.23 21.02L15.23 21.02L13.70 21.66Q13.82 21.02 14.14 20.38L14.14 20.38L14.34 20.29L14.75 19.87Q15.74 19.23 16.13 18.94Q16.51 18.66 16.88 18.59Q17.25 18.53 17.79 18.43L17.79 18.43Q18.08 18.11 18.18 18.02Q18.27 17.92 18.34 17.70Q18.40 17.47 18.56 17.31L18.56 17.31L18.34 17.06Q18.05 16.96 17.86 16.85Q17.66 16.74 17.14 16.69Q16.61 16.64 16.10 16.86Q15.58 17.09 14.56 17.50L14.56 17.50L15.23 16.83Q16.64 15.97 17.28 15.57Q17.92 15.17 18.48 15.14Q19.04 15.10 19.44 14.98Q19.84 14.85 20.67 14.59L20.67 14.59Q21.06 14.08 21.57 13.60L21.57 13.60Q21.54 13.31 21.54 13.17Q21.54 13.02 21.44 12.96Q21.34 12.90 21.15 12.70L21.15 12.70Q20.77 12.67 20.59 12.64Q20.42 12.61 19.92 12.46Q19.42 12.32 19.04 12.40Q18.66 12.48 18.29 12.78Q17.92 13.09 17.66 13.20Q17.41 13.31 17.22 13.46Q17.02 13.60 16.61 13.71Q16.19 13.82 15.30 14.08L15.30 14.08Q15.58 12.48 16.06 10.94L16.06 10.94L15.94 10.69Q15.78 10.59 15.22 10.51Q14.66 10.43 14.30 10.34ZM16.35 22.11L16.35 22.11Q16.70 22.53 16.93 22.70Q17.15 22.88 17.44 23.34Q17.73 23.81 18.53 24.93L18.53 24.93Q18.34 24.93 17.89 24.83Q17.44 24.74 16.80 24.69Q16.16 24.64 14.37 25.39Q12.58 26.14 12 26.46L12 26.46L11.71 26.30Q12 25.66 12.19 25.38Q12.38 25.09 12.67 24.50Q12.96 23.90 12.99 23.66Q13.02 23.42 13.15 23.04L13.15 23.04Q14.66 22.40 16.35 22.11ZM15.78 26.08L15.78 26.08Q15.84 26.40 15.94 26.56Q16.03 26.72 16.05 26.99Q16.06 27.26 16.16 27.90L16.16 27.90L16 27.97Q15.78 27.90 15.58 27.81Q15.39 27.71 15.04 27.78Q14.69 27.84 14.38 27.92Q14.08 28 13.50 28.16L13.50 28.16Q13.28 27.58 13.02 27.04L13.02 27.04Q13.41 26.78 13.66 26.61Q13.92 26.43 14.56 26.24Q15.20 26.05 15.38 26.06Q15.55 26.08 15.78 26.08ZM16.13 28.51L16.16 28.54L16.26 30.50L16.16 30.62Q15.10 30.91 14.11 31.17L14.11 31.17Q14.05 30.72 14 30.53Q13.95 30.34 13.98 30.24Q14.02 30.14 14.05 30.02L14.05 30.02Q15.17 29.41 16.13 28.51L16.13 28.51ZM13.63 28.80L13.82 28.80L14.24 28.93Q14.21 29.18 14.21 29.30Q14.21 29.41 14.13 29.46Q14.05 29.50 13.95 29.66L13.95 29.66L13.63 28.80Z" />
        </g>
    </g>
</svg>