<svg version="1.1" xmlns="http://www.w3.org/2000/svg"
    viewBox="0 0 343.264 46.53155554199219">
    <g>
        <g>
            <rect fill="#FFFFFF" width="0" height="0" />
        </g>
        <g transform="translate(16,0)">
            <path fill="currentColor"
                d="M21.50 12.67L21.50 12.67Q21.09 12.93 20.90 13.09Q20.70 13.25 20.51 13.28Q20.32 13.31 20.14 13.49Q19.97 13.66 19.58 13.98L19.58 13.98Q19.26 14.46 19.04 14.80Q18.82 15.14 18.24 16.11Q17.66 17.09 17.17 18.53Q16.67 19.97 16.51 20.14Q16.35 20.32 16.19 20.61L16.19 20.61Q15.74 20.48 15.47 20.35Q15.20 20.22 14.90 20.26Q14.59 20.29 13.89 20.22L13.89 20.22L13.70 20.48L13.57 20.48L13.95 21.25Q14.24 21.54 15.07 22.16Q15.90 22.78 16.48 22.85Q17.06 22.91 17.23 22.90Q17.41 22.88 17.66 22.82L17.66 22.82Q17.79 22.53 17.82 22.40Q17.86 22.27 17.70 21.97Q17.54 21.66 17.68 21.22Q17.82 20.77 17.94 20.53Q18.05 20.29 18.05 20.03Q18.05 19.78 18.03 19.57Q18.02 19.36 18.22 18.83Q18.43 18.30 18.43 17.82Q18.43 17.34 18.56 16.45Q18.69 15.55 19.06 15.23Q19.42 14.91 19.97 14.34L19.97 14.34Q20.19 14.24 20.27 14.16Q20.35 14.08 20.45 14.14Q20.54 14.21 20.74 14.24L20.74 14.24Q20.58 15.30 20.50 15.82Q20.42 16.35 20.37 17.22Q20.32 18.08 20.43 18.93Q20.54 19.78 20.90 20.45Q21.25 21.12 21.54 21.44Q21.82 21.76 22.34 22.50L22.34 22.50Q23.04 22.98 23.34 23.20Q23.65 23.42 23.94 23.49Q24.22 23.55 24.80 23.68L24.80 23.68L24.90 23.87L23.42 25.41Q18.82 29.25 18.43 29.52Q18.05 29.79 17.54 30.08L17.54 30.08Q17.79 30.18 18.21 30.27Q18.62 30.37 18.85 30.34Q19.07 30.30 19.30 30.32Q19.52 30.34 19.92 30.14Q20.32 29.95 21.30 29.66Q22.27 29.38 23.04 29.02Q23.81 28.67 24.18 28.37Q24.54 28.06 24.88 27.92Q25.22 27.78 25.66 27.49Q26.11 27.20 26.66 26.64Q27.20 26.08 27.26 26.03Q27.33 25.98 27.49 25.95L27.49 25.95L28.22 25.22L28.67 24.96L29.12 24.54Q28.93 24.13 28.86 23.94Q28.80 23.74 28.61 23.58Q28.42 23.42 28.03 23.07L28.03 23.07Q27.68 22.88 27.50 22.78Q27.33 22.69 27.09 22.61Q26.85 22.53 26.58 22.51Q26.30 22.50 26.18 22.42Q26.05 22.34 25.86 22.40Q25.66 22.46 25.42 22.66Q25.18 22.85 24.77 22.83Q24.35 22.82 24.10 22.70Q23.84 22.59 23.49 22.40L23.49 22.40Q23.07 21.76 22.80 21.42Q22.53 21.09 22.56 20.18Q22.59 19.26 22.72 18.93Q22.85 18.59 22.83 18.34Q22.82 18.08 22.91 17.74Q23.01 17.41 23.20 17.09Q23.39 16.77 23.42 16.38Q23.46 16 23.57 15.87Q23.68 15.74 23.87 15.49L23.87 15.49L24.70 14.85Q24.64 14.66 24.90 14.46L24.90 14.46Q24.80 14.27 24.77 14.18Q24.74 14.08 24.62 13.97Q24.51 13.86 24.26 13.57L24.26 13.57Q23.01 12.80 21.50 12.67ZM8.70 12.70L8.70 12.70L8.45 12.90Q6.88 15.74 6.53 16.42Q6.18 17.09 5.20 18.75Q4.22 20.42 2.53 23.97L2.53 23.97Q2.85 24.13 2.99 24.24Q3.14 24.35 3.42 24.29Q3.71 24.22 4.08 23.92Q4.45 23.62 4.82 23.39Q5.18 23.17 5.44 22.98Q5.70 22.78 6.14 22.34L6.14 22.34Q6.98 21.31 7.90 20.22L7.90 20.22L8.22 20Q8.58 19.46 8.77 19.26Q8.96 19.07 9.22 18.72Q9.47 18.37 9.54 18.27Q9.60 18.18 9.63 17.98L9.63 17.98L9.86 17.86L10.02 17.60L10.24 17.47Q10.40 17.15 10.48 16.96Q10.56 16.77 10.83 16.38Q11.10 16 11.38 15.47Q11.65 14.94 11.65 14.61Q11.65 14.27 11.50 14.16Q11.36 14.05 11.17 13.76L11.17 13.76Q10.21 13.25 9.78 12.98Q9.34 12.70 9.17 12.72Q8.99 12.74 8.70 12.70ZM9.98 21.92L9.98 21.92L9.38 22.08Q9.41 22.27 9.47 22.40Q9.54 22.53 9.76 22.75Q9.98 22.98 10.56 23.62L10.56 23.62Q11.01 23.84 11.25 23.95Q11.49 24.06 11.81 24.16Q12.13 24.26 12.48 24.54Q12.83 24.83 13.02 24.83Q13.22 24.83 13.33 24.77Q13.44 24.70 13.66 24.54L13.66 24.54Q13.79 24.13 13.89 23.97Q13.98 23.81 13.87 23.55Q13.76 23.30 13.41 23.01Q13.06 22.72 12.99 22.58Q12.93 22.43 12.86 22.14L12.86 22.14Q12.42 21.82 11.97 22.24L11.97 22.24Q11.30 22.08 11.01 22Q10.72 21.92 10.53 21.94Q10.34 21.95 9.98 21.92ZM7.42 25.02L7.42 25.02Q7.42 25.18 7.46 25.26Q7.49 25.34 7.47 25.79Q7.46 26.24 7.95 27.58Q8.45 28.93 8.66 29.28Q8.86 29.63 8.85 29.86Q8.83 30.08 8.90 30.18Q8.96 30.27 9.09 30.37L9.09 30.37L10.37 31.23L10.59 31.42Q10.75 31.49 10.85 31.50Q10.94 31.52 11.04 31.44Q11.14 31.36 11.36 31.33L11.36 31.33Q11.68 30.75 11.86 30.51Q12.03 30.27 12 29.82Q11.97 29.38 11.78 29.09Q11.58 28.80 11.52 28.45Q11.46 28.10 11.10 27.62Q10.75 27.14 10.48 26.90Q10.21 26.66 9.66 26.08L9.66 26.08Q8.83 25.60 8.46 25.46Q8.10 25.31 7.82 25.20Q7.55 25.09 7.42 25.02Z" />
        </g>
        <g transform="translate(62.751999999999995,0)">
            <path fill="currentColor"
                d="M16.22 10.94L16.16 10.85L15.94 11.14Q15.94 11.23 15.97 11.30Q16 11.36 15.90 11.54Q15.81 11.71 15.86 11.86Q15.90 12 16 12.32L16 12.32Q16.35 12.64 16.86 12.70L16.86 12.70Q16.80 13.02 16.74 13.25Q16.67 13.47 15.17 16.74L15.17 16.74Q15.04 16.90 14.86 17.01Q14.69 17.12 13.41 17.57Q12.13 18.02 11.66 18.27Q11.20 18.53 10.74 18.62Q10.27 18.72 9.09 19.17L9.09 19.17Q9.76 19.17 10.43 19.36L10.43 19.36L10.34 19.46Q10.53 19.42 10.67 19.39Q10.82 19.36 11.31 19.46Q11.81 19.55 12.38 19.22Q12.96 18.88 13.10 18.90Q13.25 18.91 13.41 18.88L13.41 18.88L12.67 19.55Q12.90 19.39 13.22 19.39L13.22 19.39Q13.34 19.58 13.47 19.68Q13.60 19.78 13.57 19.92Q13.54 20.06 13.60 20.45L13.60 20.45Q13.15 20.70 12.93 20.82Q12.70 20.93 12.40 20.96Q12.10 20.99 11.84 20.91Q11.58 20.83 11.31 20.88Q11.04 20.93 10.46 21.02L10.46 21.02Q10.43 21.28 10.34 21.38L10.34 21.38L10.62 21.31Q11.10 21.60 11.33 21.78Q11.55 21.95 11.92 22.10Q12.29 22.24 12.42 22.24Q12.54 22.24 12.77 22.24L12.77 22.24L13.12 21.50L13.66 21.15Q13.79 21.47 13.82 21.68Q13.86 21.89 13.94 22.16Q14.02 22.43 14.03 22.67Q14.05 22.91 14.11 22.98Q14.18 23.04 14.11 23.14L14.11 23.14Q12.67 23.81 11.17 24.35L11.17 24.35Q10.85 23.52 10.74 23.14Q10.62 22.75 10.38 22.11Q10.14 21.47 9.54 20.90Q8.93 20.32 8.70 20L8.70 20L8.06 19.42L7.97 19.26Q7.65 19.20 7.42 19.15Q7.20 19.10 6.90 19.15Q6.59 19.20 6.30 19.15Q6.02 19.10 5.71 19.15Q5.41 19.20 4.83 19.36L4.83 19.36L5.09 19.42L5.76 20.22Q8.61 23.14 9.50 23.78Q10.40 24.42 10.62 24.54L10.62 24.54L9.50 25.06Q9.66 25.18 10.34 25.41Q11.01 25.63 11.76 25.47Q12.51 25.31 14.05 24.93Q15.58 24.54 16.90 24.22Q18.21 23.90 18.80 23.90Q19.39 23.90 19.79 23.78Q20.19 23.65 20.35 23.71Q20.51 23.78 20.74 23.81L20.74 23.81Q21.76 23.23 22.69 22.34L22.69 22.34L23.01 21.89L23.58 21.41L23.65 21.28L24.06 21.02L24.38 20.38L24.61 20.32Q24.83 19.97 24.93 19.82Q25.02 19.68 25.17 19.62Q25.31 19.55 25.28 19.46Q25.25 19.36 25.31 19.26L25.31 19.26L25.41 19.30Q25.60 19.10 25.70 19.01Q25.79 18.91 25.89 18.75Q25.98 18.59 26 18.43Q26.02 18.27 25.92 18.14Q25.82 18.02 25.73 17.66L25.73 17.66Q25.06 17.18 24.74 16.94Q24.42 16.70 23.92 16.56Q23.42 16.42 22.90 16.40Q22.37 16.38 22.03 16.45Q21.70 16.51 21.36 16.34Q21.02 16.16 20.06 16.13Q19.10 16.10 18.61 16.19Q18.11 16.29 17.38 16.38L17.38 16.38Q17.44 16.19 17.58 15.95Q17.73 15.71 17.76 15.65L17.76 15.65L18.11 15.46Q18.43 15.07 19.01 14.46Q19.58 13.86 19.87 13.34L19.87 13.34L20.58 12.74Q20.58 12.48 20.59 12.34Q20.61 12.19 20.51 12.13Q20.42 12.06 20.32 11.87L20.32 11.87Q20.22 11.81 19.94 11.58Q19.65 11.36 19.07 11.28Q18.50 11.20 17.84 11.28Q17.18 11.36 16.96 11.46Q16.74 11.55 16.51 11.71L16.51 11.71Q16.38 11.58 16.34 11.39Q16.29 11.20 16.22 10.94L16.22 10.94ZM9.44 13.54L9.44 13.54L9.38 13.73L9.09 13.86L9.66 14.66L11.04 15.90L11.39 16.32L12.74 16.96L13.34 16.61L13.44 16.48L13.60 16.38L13.79 16.13L13.92 16.16Q13.86 16 13.84 15.86Q13.82 15.71 13.84 15.52Q13.86 15.33 13.84 15.18Q13.82 15.04 13.66 14.82L13.66 14.82L13.47 14.75L13.22 14.27Q12.83 14.11 12.21 13.97Q11.58 13.82 11.20 13.78Q10.82 13.73 10.48 13.73Q10.14 13.73 9.95 13.70Q9.76 13.66 9.44 13.54ZM19.10 17.28L19.10 17.28Q19.58 17.34 19.82 17.34Q20.06 17.34 20.32 17.49Q20.58 17.63 21.15 17.92L21.15 17.92Q21.18 18.02 21.25 18.06Q21.31 18.11 21.25 18.51Q21.18 18.91 20.90 19.42Q20.61 19.94 20.32 20.48Q20.03 21.02 19.92 21.22Q19.81 21.41 19.65 21.76L19.65 21.76Q19.49 21.89 19.34 21.97Q19.20 22.05 18.62 22.10Q18.05 22.14 17.89 22.13Q17.73 22.11 17.62 22.19Q17.50 22.27 17.12 22.35Q16.74 22.43 15.90 22.62L15.90 22.62Q15.84 22.53 15.82 22.48Q15.81 22.43 15.82 22.34Q15.84 22.24 15.82 22.19Q15.81 22.14 15.78 22.08L15.78 22.08L15.97 21.57Q16.32 21.34 16.53 21.18Q16.74 21.02 17.31 20.70Q17.89 20.38 18.24 20.37Q18.59 20.35 19.10 20.32L19.10 20.32L19.55 19.78L19.46 19.36Q19.23 19.17 19.02 19.02Q18.82 18.88 18.24 18.83Q17.66 18.78 17.17 18.78Q16.67 18.78 16.38 18.93Q16.10 19.07 15.95 19.17Q15.81 19.26 15.73 19.26Q15.65 19.26 15.58 19.26L15.58 19.26Q15.62 19.07 15.68 18.98Q15.74 18.88 15.76 18.69Q15.78 18.50 15.65 18.40Q15.52 18.30 15.36 18.08L15.36 18.08Q15.74 17.89 15.95 17.79Q16.16 17.70 16.66 17.58Q17.15 17.47 17.84 17.36Q18.53 17.25 18.70 17.26Q18.88 17.28 19.10 17.28ZM16.42 19.68L16.42 19.68Q16.38 19.97 16.34 20.11Q16.29 20.26 16.16 20.43Q16.03 20.61 15.78 21.09L15.78 21.09Q15.65 20.61 15.55 20.06L15.55 20.06Q15.81 19.87 15.92 19.76Q16.03 19.65 16.13 19.66Q16.22 19.68 16.42 19.68ZM17.73 25.70L17.73 25.70Q17.28 25.89 16.83 25.98Q16.38 26.08 14.91 26.77Q13.44 27.46 12.70 27.39Q11.97 27.33 11.86 27.41Q11.74 27.49 11.58 27.62L11.58 27.62Q11.81 28 12.03 28.21Q12.26 28.42 12.59 29.66Q12.93 30.91 13.12 31.25Q13.31 31.58 13.33 31.76Q13.34 31.94 13.42 32.06Q13.50 32.19 13.55 32.38Q13.60 32.58 13.65 32.67Q13.70 32.77 13.82 32.96L13.82 32.96L13.98 33.02L14.21 33.41L14.43 33.57Q14.75 33.34 14.88 32.90L14.88 32.90L17.18 32.58Q17.70 33.47 17.89 33.82Q18.08 34.18 18.14 34.27Q18.21 34.37 18.30 34.50L18.30 34.50L18.43 34.24L18.66 34.11L18.72 33.82L18.88 33.76L18.91 33.60L19.74 32.86Q19.94 32.42 19.98 32.24Q20.03 32.06 20.11 31.79Q20.19 31.52 20.22 31.12Q20.26 30.72 20.38 30.26Q20.51 29.79 20.58 29.28Q20.64 28.77 20.77 28.38Q20.90 28 20.91 27.76Q20.93 27.52 21.12 27.23L21.12 27.23Q20.80 26.88 20.80 26.46L20.80 26.46Q20.64 26.34 20.53 26.24Q20.42 26.14 20.14 26.05Q19.87 25.95 19.63 25.92Q19.39 25.89 19.15 25.79Q18.91 25.70 18.51 25.73Q18.11 25.76 18.02 25.74Q17.92 25.73 17.73 25.70ZM17.06 27.23L17.09 27.23L18.02 27.46Q18.08 27.62 18.14 27.78Q18.21 27.94 17.76 31.36L17.76 31.36L17.06 31.39L16.96 31.49Q16.10 31.78 15.73 31.86Q15.36 31.94 15.18 32.02Q15.01 32.10 14.75 32.19L14.75 32.19L14.62 32.06Q14.66 31.78 14.66 31.39L14.66 31.39L15.46 30.69L15.81 30.18Q16.10 29.95 16.19 29.84Q16.29 29.73 16.51 29.65Q16.74 29.57 17.28 29.38L17.28 29.38L17.57 29.06L17.54 28.77Q17.44 28.64 17.34 28.54Q17.25 28.45 16.91 28.43Q16.58 28.42 16.26 28.50Q15.94 28.58 15.33 28.67L15.33 28.67L15.07 28.86L14.21 29.18Q14.02 28.77 13.95 28.58Q13.89 28.38 13.90 28.26Q13.92 28.13 14.02 27.94L14.02 27.94Q15.52 27.55 17.06 27.23L17.06 27.23ZM14.50 29.86L14.88 29.92Q14.82 30.24 14.80 30.40Q14.78 30.56 14.72 30.62Q14.66 30.69 14.62 30.72L14.62 30.72L14.27 30.05L14.50 29.86Z" />
        </g>
        <g transform="translate(109.50399999999999,0)">
            <path fill="currentColor"
                d="M11.90 12.13L11.90 12.13L11.71 12.29L11.23 12.29L11.10 12.45Q10.56 12.54 10.29 12.59Q10.02 12.64 9.84 12.75Q9.66 12.86 9.57 12.86L9.57 12.86L9.50 13.18Q9.70 13.18 9.84 13.15Q9.98 13.12 10.29 13.25Q10.59 13.38 10.85 13.39Q11.10 13.41 11.49 13.41L11.49 13.41Q11.52 13.76 11.55 14.05Q11.58 14.34 11.39 18.66L11.39 18.66Q10.08 19.07 9.58 19.22Q9.09 19.36 8.69 19.57Q8.29 19.78 7.25 19.98Q6.21 20.19 4.98 20.54Q3.74 20.90 3.46 20.90Q3.17 20.90 2.85 20.90L2.85 20.90L2.94 21.12Q3.33 21.34 3.57 21.49Q3.81 21.63 4.19 21.70Q4.58 21.76 4.74 21.89Q4.90 22.02 5.15 22.11L5.15 22.11Q5.25 22.08 5.31 22.10Q5.38 22.11 5.49 22.06Q5.60 22.02 5.79 21.98Q5.98 21.95 6.21 21.86Q6.43 21.76 6.72 21.71Q7.01 21.66 7.28 21.52Q7.55 21.38 7.94 21.28Q8.32 21.18 9.39 20.83Q10.46 20.48 10.83 20.32Q11.20 20.16 11.39 20.19L11.39 20.19Q10.78 21.12 10.53 21.41Q10.27 21.70 10.02 22.14Q9.76 22.59 9.18 23.20Q8.61 23.81 8.43 24.19Q8.26 24.58 7.98 24.80Q7.71 25.02 7.26 25.66Q6.82 26.30 6.77 26.58Q6.72 26.85 6.75 26.99Q6.78 27.14 6.91 27.58L6.91 27.58Q7.30 27.81 7.71 27.58L7.71 27.58L7.52 27.81Q9.89 27.26 11.81 25.73L11.81 25.73Q11.87 25.95 11.94 26.13Q12 26.30 11.98 26.88Q11.97 27.46 12 28.86L12 28.86L11.49 27.49Q11.55 28.29 11.58 28.66Q11.62 29.02 11.81 29.49Q12 29.95 12.45 31.23L12.45 31.23Q12.54 31.42 12.77 31.36L12.77 31.36L12.96 31.55L13.54 31.71Q13.82 31.46 14 31.30Q14.18 31.14 14.27 30.53Q14.37 29.92 14.18 29.36Q13.98 28.80 14.03 28.29Q14.08 27.78 14.06 27.15Q14.05 26.53 13.84 25.63Q13.63 24.74 13.63 24.50Q13.63 24.26 13.63 24L13.63 24L16.35 21.34Q16.42 21.38 16.50 21.42Q16.58 21.47 16.74 22.70Q16.90 23.94 16.99 27.71L16.99 27.71L16.77 27.97Q16.90 28.38 16.86 28.80L16.86 28.80Q16.99 28.86 17.07 28.90Q17.15 28.93 17.30 28.86Q17.44 28.80 17.76 28.67L17.76 28.67L17.86 28.77Q18.02 28.64 18.08 28.59Q18.14 28.54 18.30 28.54Q18.46 28.54 18.72 28.45L18.72 28.45L18.85 28.26Q19.17 28.19 19.33 28.11Q19.49 28.03 19.78 28.02Q20.06 28 20.77 27.90L20.77 27.90Q21.60 29.22 22.03 29.70Q22.46 30.18 22.66 30.56Q22.85 30.94 22.99 31.12Q23.14 31.30 23.49 31.65L23.49 31.65Q23.68 31.71 23.90 31.81L23.90 31.81Q24.03 31.49 24.19 31.22Q24.35 30.94 24.54 30.54Q24.74 30.14 24.77 29.98Q24.80 29.82 24.83 29.63L24.83 29.63L24.96 29.76Q24.99 29.02 25.02 28.75Q25.06 28.48 25.04 27.98Q25.02 27.49 24.93 26.11Q24.83 24.74 24.88 24.45Q24.93 24.16 24.96 23.89Q24.99 23.62 24.91 22.98Q24.83 22.34 24.90 22Q24.96 21.66 24.98 20.94Q24.99 20.22 25.26 19.23Q25.54 18.24 25.44 18.06Q25.34 17.89 25.18 17.50L25.18 17.50Q25.02 17.44 24.75 17.30Q24.48 17.15 23.94 17.09Q23.39 17.02 23.22 16.93Q23.04 16.83 22.85 16.96Q22.66 17.09 22.21 17.10Q21.76 17.12 21.66 17.12L21.66 17.12L21.66 17.34Q20.58 17.66 19.78 17.79Q18.98 17.92 17.82 18.59Q16.67 19.26 16.38 19.31Q16.10 19.36 16 19.28Q15.90 19.20 15.71 19.04L15.71 19.04L15.52 19.14L15.33 19.04Q15.46 19.42 15.54 19.63Q15.62 19.84 15.97 20.13Q16.32 20.42 16.32 20.59Q16.32 20.77 16.35 21.06L16.35 21.06L13.54 23.04Q13.54 22.91 13.52 22.86Q13.50 22.82 13.52 22.32Q13.54 21.82 13.44 21.36Q13.34 20.90 13.44 20.74Q13.54 20.58 13.66 20.35L13.66 20.35Q13.22 19.94 13.50 19.36L13.50 19.36Q14.30 19.01 14.69 18.91Q15.07 18.82 15.25 18.69Q15.42 18.56 15.78 18.27L15.78 18.27L15.90 18.08L16 18.02Q15.58 17.86 15.31 17.68Q15.04 17.50 14.45 17.50Q13.86 17.50 13.82 17.58Q13.79 17.66 13.66 17.70L13.66 17.70L13.44 17.63Q13.44 16.54 13.49 15.09Q13.54 13.63 13.66 13.31Q13.79 12.99 13.84 12.94Q13.89 12.90 13.92 12.83L13.92 12.83L13.79 12.35Q13.34 12.26 13.09 12.21Q12.83 12.16 12.42 12.14Q12 12.13 11.90 12.13ZM21.70 18.62L21.70 18.62Q21.76 19.42 21.87 22.48Q21.98 25.54 22.03 25.89Q22.08 26.24 22.11 26.72L22.11 26.72Q21.41 26.85 21.02 26.88Q20.64 26.91 20.22 27.06Q19.81 27.20 18.91 27.49L18.91 27.49Q19.04 27.39 19.07 27.30Q19.10 27.20 19.52 26.77Q19.94 26.34 20.22 25.74Q20.51 25.15 20.67 24.96Q20.83 24.77 21.09 24.42L21.09 24.42L21.34 24.35L21.86 23.78L21.79 23.58Q21.60 23.39 21.49 23.28Q21.38 23.17 21.04 23.22Q20.70 23.26 19.97 23.26L19.97 23.26L19.68 23.49Q19.20 23.65 18.78 23.94L18.78 23.94Q18.66 23.30 18.62 23.07Q18.59 22.85 18.61 22.78Q18.62 22.72 18.66 22.62L18.66 22.62Q19.87 22.30 21.12 21.82L21.12 21.82L21.22 21.54L20.83 21.18Q20.64 21.15 20.51 21.07Q20.38 20.99 19.84 21.18Q19.30 21.38 19.04 21.52Q18.78 21.66 18.43 21.89L18.43 21.89Q18.30 21.54 18.27 21.39Q18.24 21.25 18.26 21.09Q18.27 20.93 18.24 20.67Q18.21 20.42 18.08 20.19L18.08 20.19Q17.89 20.10 17.73 20L17.73 20Q18.82 19.42 19.38 19.12Q19.94 18.82 20.51 18.69Q21.09 18.56 21.28 18.59Q21.47 18.62 21.70 18.62ZM11.55 23.10L11.58 23.17L11.49 23.42L11.58 23.39L11.62 24.35Q10.34 25.41 8.90 26.18L8.90 26.18L8.83 26.11L9.41 25.57L10.98 23.65L11.55 23.10ZM18.85 24.77L19.55 24.58Q19.46 24.93 19.46 25.07Q19.46 25.22 19.33 25.44Q19.20 25.66 18.91 26.14L18.91 26.14L18.85 24.77ZM22.27 27.71L22.27 27.71L22.37 29.18L21.73 28.64L21.12 27.90Q21.22 27.87 21.30 27.84Q21.38 27.81 21.62 27.81Q21.86 27.81 22.27 27.71Z" />
        </g>
        <g transform="translate(156.256,0)">
            <path fill="currentColor"
                d="M11.49 12.74L11.49 12.74Q10.94 12.86 10.74 12.88Q10.53 12.90 10.34 13.01Q10.14 13.12 9.50 13.30Q8.86 13.47 7.98 13.81Q7.10 14.14 7.01 14.21Q6.91 14.27 6.75 14.27L6.75 14.27L7.04 14.66Q7.33 14.66 7.47 14.64Q7.62 14.62 7.68 14.69Q7.74 14.75 7.92 14.70Q8.10 14.66 8.67 14.90Q9.25 15.14 9.38 15.14L9.38 15.14Q9.15 15.52 8.96 15.90L8.96 15.90L9.54 15.52L9.63 15.30Q9.98 15.23 10.11 15.18Q10.24 15.14 10.59 15.09Q10.94 15.04 11.63 14.85Q12.32 14.66 12.66 14.46Q12.99 14.27 13.22 14.22Q13.44 14.18 13.55 14.08Q13.66 13.98 13.86 13.79L13.86 13.79L14.21 13.44L14.02 13.18Q13.82 13.12 13.70 13.09Q13.57 13.06 13.33 13.04Q13.09 13.02 12.86 12.93Q12.64 12.83 12.37 12.83Q12.10 12.83 11.94 12.78Q11.78 12.74 11.49 12.74ZM20.58 15.01L20.58 15.01L20.10 15.10Q19.81 15.39 19.74 15.74L19.74 15.74Q15.90 17.79 15.81 17.82Q15.71 17.86 15.55 17.86L15.55 17.86L15.39 17.50Q14.27 17.44 13.78 17.38Q13.28 17.31 13.01 17.33Q12.74 17.34 12.35 17.34L12.35 17.34L13.12 17.73Q13.57 18.21 13.90 18.45Q14.24 18.69 14.67 19.62Q15.10 20.54 15.44 20.99Q15.78 21.44 16.32 22.27L16.32 22.27Q16.16 22.40 16 22.46L16 22.46Q16.32 22.59 16.53 22.61Q16.74 22.62 17.04 22.93Q17.34 23.23 17.60 23.36L17.60 23.36L16.74 24.19Q17.22 24 17.46 23.92Q17.70 23.84 18.08 23.52Q18.46 23.20 18.91 22.99Q19.36 22.78 19.82 22.70Q20.29 22.62 20.59 22.42Q20.90 22.21 21.26 22.13Q21.63 22.05 22.50 21.76L22.50 21.76L22.69 21.54Q22.34 21.18 22.22 21.04Q22.11 20.90 21.92 20.90Q21.73 20.90 21.44 20.86L21.44 20.86Q21.44 20.80 21.44 20.74Q21.44 20.67 21.89 20.14Q22.34 19.62 22.51 19.39Q22.69 19.17 22.88 18.85L22.88 18.85Q23.58 18.21 23.89 17.95Q24.19 17.70 24.26 17.66Q24.32 17.63 24.38 17.63L24.38 17.63L24.74 17.15L24.61 16.74L24.26 16.54L24.22 16.19Q23.87 15.97 23.68 15.82Q23.49 15.68 22.94 15.49Q22.40 15.30 21.97 15.25Q21.54 15.20 21.31 15.09Q21.09 14.98 20.93 14.99Q20.77 15.01 20.58 15.01ZM19.65 17.50L19.65 17.50Q19.62 18.11 19.09 19.50Q18.56 20.90 18.11 21.57L18.11 21.57L17.63 21.70Q17.47 21.47 17.36 21.23Q17.25 20.99 17.18 20.83Q17.12 20.67 17.01 20.45Q16.90 20.22 16.70 19.78Q16.51 19.33 16.29 18.78L16.29 18.78Q16.54 18.69 16.78 18.58Q17.02 18.46 17.94 18.10Q18.85 17.73 19.14 17.63Q19.42 17.54 19.65 17.50ZM11.46 19.62L11.01 19.55Q10.37 19.62 9.97 19.62Q9.57 19.62 8.75 19.89Q7.94 20.16 6.86 20.75Q5.79 21.34 5.18 21.60Q4.58 21.86 3.52 22.27L3.52 22.27Q4.26 22.40 4.70 22.53Q5.15 22.66 5.95 22.66Q6.75 22.66 7.23 22.27Q7.71 21.89 7.97 21.82Q8.22 21.76 8.51 21.63L8.51 21.63Q8.64 21.95 8.77 22.22Q8.90 22.50 9.23 24.91Q9.57 27.33 9.52 28.51Q9.47 29.70 9.41 29.82Q9.34 29.95 9.22 30.11L9.22 30.11Q9.28 30.59 9.38 31.10L9.38 31.10Q9.57 31.17 9.66 31.17Q9.76 31.17 10.03 31.42Q10.30 31.68 10.69 31.55Q11.07 31.42 11.12 31.49Q11.17 31.55 11.26 31.55L11.26 31.55Q11.33 31.36 11.42 31.26Q11.52 31.17 11.54 30.75Q11.55 30.34 11.82 29.76Q12.10 29.18 12.64 27.68L12.64 27.68L12.80 27.52Q13.09 27.71 13.30 27.78Q13.50 27.84 13.89 28.13Q14.27 28.42 14.85 28.50Q15.42 28.58 15.95 28.50Q16.48 28.42 16.69 28.19Q16.90 27.97 17.22 27.84Q17.54 27.71 17.95 27.39Q18.37 27.07 18.70 26.85Q19.04 26.62 19.62 26.18L19.62 26.18L19.81 26.05Q20.22 25.79 20.48 25.65Q20.74 25.50 21.14 25.52Q21.54 25.54 21.82 25.71Q22.11 25.89 22.66 26.14L22.66 26.14Q23.10 26.82 23.34 27.06Q23.58 27.30 23.60 27.39Q23.62 27.49 23.65 27.68L23.65 27.68L22.30 29.02L21.73 29.38Q21.92 29.38 22.03 29.34Q22.14 29.31 22.42 29.36Q22.69 29.41 22.88 29.50Q23.07 29.60 23.25 29.55Q23.42 29.50 23.52 29.55Q23.62 29.60 23.73 29.57Q23.84 29.54 23.95 29.57Q24.06 29.60 24.35 29.60Q24.64 29.60 25.18 29.79Q25.73 29.98 26.02 29.98Q26.30 29.98 26.85 30.02L26.85 30.02Q26.91 29.41 27.01 29.20Q27.10 28.99 27.17 28.64Q27.23 28.29 27.02 27.81Q26.82 27.33 26.53 27.09Q26.24 26.85 25.76 26.24L25.76 26.24Q25.38 26.05 25.07 25.89Q24.77 25.73 23.98 25.65Q23.20 25.57 22.51 25.55Q21.82 25.54 21.47 25.44Q21.12 25.34 20.48 25.47Q19.84 25.60 18.35 26.34Q16.86 27.07 15.94 27.30Q15.01 27.52 14.34 27.41Q13.66 27.30 13.39 27.31Q13.12 27.33 12.83 27.33L12.83 27.33Q13.09 26.30 13.25 25.86Q13.41 25.41 13.39 24.86Q13.38 24.32 13.25 24Q13.12 23.68 12.93 23.49Q12.74 23.30 12.70 23.10L12.70 23.10Q12.64 23.55 12.62 23.86Q12.61 24.16 12.34 25.15Q12.06 26.14 11.86 26.45Q11.65 26.75 11.36 27.30L11.36 27.30Q11.17 26.53 11.09 26.21Q11.01 25.89 11.01 25.36Q11.01 24.83 10.91 24.34Q10.82 23.84 10.91 22.90Q11.01 21.95 11.01 21.28Q11.01 20.61 11.15 20.45Q11.30 20.29 11.55 19.78L11.55 19.78L11.46 19.62Z" />
        </g>
        <g transform="translate(203.008,0)">
            <path fill="currentColor"
                d="M15.58 10.27L15.58 10.27Q15.42 10.34 15.34 10.45Q15.26 10.56 14.94 10.59Q14.62 10.62 13.89 10.72L13.89 10.72L14.27 11.07L14.50 11.39L15.42 12.16L14.94 15.39L12.35 16.16Q12.26 15.97 12.18 15.81Q12.10 15.65 12.10 15.10Q12.10 14.56 11.97 14.46Q11.84 14.37 11.68 14.14L11.68 14.14Q11.46 13.95 11.33 13.82Q11.20 13.70 10.74 13.68Q10.27 13.66 9.28 13.38L9.28 13.38L9.02 13.66L8.64 13.73L9.22 14.11Q9.41 14.34 9.57 14.46Q9.73 14.59 9.90 15.31Q10.08 16.03 10.11 16.26Q10.14 16.48 10.18 16.83L10.18 16.83Q9.25 17.34 8.74 17.52Q8.22 17.70 7.76 17.97Q7.30 18.24 7.17 18.26Q7.04 18.27 6.85 18.30L6.85 18.30L6.88 18.46L7.49 18.56L7.68 18.75Q8.19 18.82 8.50 18.85Q8.80 18.88 9.14 19.04Q9.47 19.20 9.63 19.10Q9.79 19.01 9.97 19.01Q10.14 19.01 10.34 18.96Q10.53 18.91 10.78 18.75L10.78 18.75Q10.88 18.91 11.01 18.94Q11.14 18.98 11.30 19.47Q11.46 19.97 11.60 20.19Q11.74 20.42 12.03 20.83L12.03 20.83L10.78 21.34Q11.07 21.60 11.26 21.74Q11.46 21.89 11.86 21.90Q12.26 21.92 12.53 21.73Q12.80 21.54 12.98 21.50Q13.15 21.47 13.34 21.47L13.34 21.47Q13.22 21.63 13.18 21.78Q13.15 21.92 12.85 22.19Q12.54 22.46 11.90 23.20L11.90 23.20Q12.13 23.20 12.32 23.20Q12.51 23.20 13.42 22.40Q14.34 21.60 14.85 21.28Q15.36 20.96 15.76 20.86Q16.16 20.77 16.96 20.42L16.96 20.42L17.15 20L16.61 19.36Q16.74 18.59 16.93 18.03Q17.12 17.47 17.12 17.22L17.12 17.22Q17.31 17.15 17.41 17.07Q17.50 16.99 17.81 17.02Q18.11 17.06 18.72 16.85Q19.33 16.64 19.70 16.67Q20.06 16.70 20.32 16.53Q20.58 16.35 21.12 15.97L21.12 15.97Q21.22 15.68 21.31 15.55Q21.41 15.42 21.22 15.04Q21.02 14.66 20.93 14.56Q20.83 14.46 20.61 14.30L20.61 14.30Q19.94 14.30 19.68 14.30Q19.42 14.30 19.30 14.26Q19.17 14.21 18.99 14.22Q18.82 14.24 18.48 14.42Q18.14 14.59 17.97 14.62Q17.79 14.66 17.54 14.66L17.54 14.66Q17.54 14.46 17.73 13.98Q17.92 13.50 17.97 13.07Q18.02 12.64 18.13 12.43Q18.24 12.22 18.22 12.03Q18.21 11.84 18.14 11.74Q18.08 11.65 17.92 11.49L17.92 11.49Q17.70 11.26 17.57 11.17Q17.44 11.07 17.17 10.90Q16.90 10.72 16.58 10.62Q16.26 10.53 16.05 10.43Q15.84 10.34 15.58 10.27ZM18.30 17.92L18.30 17.92L18.02 18.30Q17.76 18.50 17.54 18.37L17.54 18.37L17.60 18.56L17.95 18.66Q18.02 18.82 18.10 18.90Q18.18 18.98 18.29 19.22Q18.40 19.46 18.35 20.16Q18.30 20.86 18.34 22Q18.37 23.14 18.58 23.90Q18.78 24.67 18.98 24.88Q19.17 25.09 19.14 25.15Q19.10 25.22 19.10 25.28L19.10 25.28Q20.86 26.78 23.30 26.50L23.30 26.50Q23.46 26.27 23.57 26.19Q23.68 26.11 23.66 25.97Q23.65 25.82 23.68 25.54L23.68 25.54Q23.30 25.18 23.06 24.93Q22.82 24.67 22.11 24.66Q21.41 24.64 21.14 24.50Q20.86 24.35 20.74 24.37Q20.61 24.38 20.56 24.34Q20.51 24.29 20.32 24.19L20.32 24.19L20.26 21.95Q22.30 21.60 24.29 20.86L24.29 20.86L24.54 20.19L24.29 19.65Q24.03 19.52 23.90 19.42Q23.78 19.33 23.54 19.34Q23.30 19.36 23.09 19.33Q22.88 19.30 22.51 19.34Q22.14 19.39 22.10 19.49Q22.05 19.58 21.97 19.58Q21.89 19.58 21.82 19.58L21.82 19.58L21.22 20.19L20.32 20.61Q20.38 20.06 20.38 19.84Q20.38 19.62 20.45 19.50Q20.51 19.39 20.61 19.20L20.61 19.20L20.32 18.59Q19.84 18.34 19.14 18.16Q18.43 17.98 18.30 17.92ZM14.46 18.02L14.46 18.02Q14.40 19.01 13.98 19.94L13.98 19.94L13.09 20.26Q12.96 19.36 12.96 18.43L12.96 18.43Q13.15 18.27 13.50 18.19Q13.86 18.11 14.05 18.10Q14.24 18.08 14.46 18.02ZM8.58 20.90L7.58 20.67Q7.23 20.86 6.88 20.83L6.88 20.83Q7.17 21.31 7.38 21.52Q7.58 21.73 7.70 22.05Q7.81 22.37 8.06 23.14L8.06 23.14L6.53 23.26L6.66 23.36L5.73 23.52Q6.46 23.97 6.86 24.19Q7.26 24.42 7.70 24.61Q8.13 24.80 8.26 24.80Q8.38 24.80 8.61 24.80L8.61 24.80L9.31 26.11L9.06 26.37Q7.94 26.98 7.38 27.30Q6.82 27.62 6.30 27.71Q5.79 27.81 5.65 27.86Q5.50 27.90 5.28 28L5.28 28Q6.18 28.19 6.64 28.27Q7.10 28.35 7.54 28.53Q7.97 28.70 8.16 28.69Q8.35 28.67 8.61 28.58L8.61 28.58L8.86 28.22Q9.47 27.71 9.74 27.49Q10.02 27.26 10.11 27.31Q10.21 27.36 10.37 27.36L10.37 27.36L10.50 27.01L11.14 26.50L11.46 26.11L11.81 25.89L12.22 26.78Q12.48 27.01 12.62 27.12Q12.77 27.23 12.88 27.23Q12.99 27.23 13.18 27.23L13.18 27.23L13.57 26.88Q13.70 26.82 13.79 26.78Q13.89 26.75 14.22 26.85Q14.56 26.94 15.39 26.86Q16.22 26.78 16.58 26.66Q16.93 26.53 17.06 26.50L17.06 26.50L17.28 26.24Q17.09 25.76 16.83 25.41L16.83 25.41Q16.90 25.15 17.28 24.54Q17.66 23.94 17.92 23.71Q18.18 23.49 18.30 23.26L18.30 23.26L17.79 22.43Q17.09 22.05 16.51 21.50L16.51 21.50Q16.29 21.54 16.11 21.57Q15.94 21.60 15.55 22.02Q15.17 22.43 14.61 22.61Q14.05 22.78 13.60 23.01Q13.15 23.23 12.22 23.78L12.22 23.78Q11.52 23.65 10.88 23.55L10.88 23.55L11.36 24.19L11.26 24.32Q11.52 24.64 11.65 25.02L11.65 25.02L10.40 25.63Q10.30 25.44 10.26 25.33Q10.21 25.22 10.24 24.83Q10.27 24.45 10.02 23.98Q9.76 23.52 9.70 22.98Q9.63 22.43 9.41 22.02Q9.18 21.60 9.02 21.44Q8.86 21.28 8.58 20.90L8.58 20.90ZM14.91 23.68L14.91 23.68L15.49 23.68Q15.26 24.74 14.66 25.60L14.66 25.60Q14.08 25.89 13.47 25.92L13.47 25.92L12.90 24.58L13.25 24.19Q14.02 23.87 14.40 23.73Q14.78 23.58 14.82 23.63Q14.85 23.68 14.91 23.68ZM20.64 28.54L20.64 28.54Q19.71 28.83 19.06 28.96Q18.40 29.09 17.33 29.57Q16.26 30.05 14.98 29.78Q13.70 29.50 13.52 29.62Q13.34 29.73 13.18 29.73Q13.02 29.73 12.61 29.82L12.61 29.82Q13.34 30.27 13.87 30.56Q14.40 30.85 15.28 31.09Q16.16 31.33 16.75 31.36Q17.34 31.39 17.71 31.25Q18.08 31.10 18.38 30.86Q18.69 30.62 19.06 30.45Q19.42 30.27 19.79 29.92Q20.16 29.57 20.50 29.55Q20.83 29.54 21.01 29.65Q21.18 29.76 21.41 29.86L21.41 29.86L23.87 32.54Q24.32 32.86 24.54 33.06Q24.77 33.25 25.31 33.33Q25.86 33.41 26.11 33.36Q26.37 33.31 26.90 33.12Q27.42 32.93 27.50 32.88Q27.58 32.83 27.71 32.67L27.71 32.67Q27.49 32.10 27.41 31.86Q27.33 31.62 27.18 31.42Q27.04 31.23 26.72 30.75L26.72 30.75Q26.14 30.21 25.84 29.97Q25.54 29.73 25.25 29.62Q24.96 29.50 24.70 29.31Q24.45 29.12 23.82 28.91Q23.20 28.70 22.11 28.61Q21.02 28.51 20.91 28.53Q20.80 28.54 20.64 28.54ZM10.53 29.60L10.53 29.60Q9.86 29.95 9.47 30.11Q9.09 30.27 8.50 30.27Q7.90 30.27 6.72 30.24Q5.54 30.21 4.80 30.32Q4.06 30.43 3.84 30.40Q3.62 30.37 3.23 30.27L3.23 30.27Q3.87 30.69 4.32 30.96Q4.77 31.23 5.65 31.62Q6.53 32 7.18 32.16Q7.84 32.32 8.19 32.27Q8.54 32.22 8.67 32.16Q8.80 32.10 9.06 31.94L9.06 31.94Q9.31 31.49 9.41 31.31Q9.50 31.14 9.62 30.82Q9.73 30.50 10.13 30.16Q10.53 29.82 10.53 29.74Q10.53 29.66 10.53 29.60Z" />
        </g>
        <g transform="translate(249.76000000000002,0)">
            <path fill="currentColor"
                d="M8.35 11.68L8.35 11.68L8.03 11.90L7.87 11.87L7.62 12.10L8.74 13.34L9.02 13.38Q9.12 13.82 9.28 14.18Q9.44 14.53 9.66 17.65Q9.89 20.77 9.81 23.20Q9.73 25.63 9.58 26.86Q9.44 28.10 9.33 29.33Q9.22 30.56 9.17 30.61Q9.12 30.66 9.09 30.72L9.09 30.72Q8.90 30.50 8.85 30.30Q8.80 30.11 8.69 29.87Q8.58 29.63 8.48 29.34Q8.38 29.06 8.24 28.80Q8.10 28.54 8 28.38L8 28.38Q8.03 28.99 8.10 29.20Q8.16 29.41 8.11 29.50Q8.06 29.60 8.11 29.68Q8.16 29.76 8.22 30.29Q8.29 30.82 8.51 31.34Q8.74 31.87 8.98 32.13Q9.22 32.38 9.33 32.59Q9.44 32.80 9.66 33.22L9.66 33.22Q9.76 32.93 9.97 32.64Q10.18 32.35 10.27 32.11Q10.37 31.87 10.62 31.66Q10.88 31.46 11.06 30.58Q11.23 29.70 11.25 29.07Q11.26 28.45 11.46 27.95Q11.65 27.46 11.71 26.75Q11.78 26.05 11.71 25.82Q11.65 25.60 11.71 25.39Q11.78 25.18 11.74 24.90Q11.71 24.61 11.81 24.37Q11.90 24.13 11.81 23.60Q11.71 23.07 11.86 22.29Q12 21.50 11.95 21.18Q11.90 20.86 11.95 20.58Q12 20.29 11.95 19.62Q11.90 18.94 11.92 18.50Q11.94 18.05 12.03 17.89Q12.13 17.73 12.18 17.41Q12.22 17.09 12.16 16.99Q12.10 16.90 12.06 16.70L12.06 16.70Q12.16 16.61 12.19 16.42Q12.22 16.22 12.19 16Q12.16 15.78 12.21 15.47Q12.26 15.17 12.26 14.86Q12.26 14.56 12.30 14.27Q12.35 13.98 12.35 13.74Q12.35 13.50 12.45 13.15L12.45 13.15Q12.13 12.83 12.13 12.48L12.13 12.48Q11.90 12.32 11.68 12.16Q11.46 12 10.48 12.05Q9.50 12.10 9.20 12.16Q8.90 12.22 8.61 12.29L8.61 12.29Q8.26 12.10 8.35 11.68ZM22.08 14.98L22.08 14.98Q21.92 15.07 21.17 15.10Q20.42 15.14 19.42 15.42Q18.43 15.71 17.52 16.13Q16.61 16.54 15.82 17.02Q15.04 17.50 14.86 17.50Q14.69 17.50 14.46 17.50L14.46 17.50L14.50 17.34L14.30 17.54Q14.43 17.66 14.56 17.71Q14.69 17.76 15.26 17.82Q15.84 17.89 16.40 18.02Q16.96 18.14 17.54 18.13Q18.11 18.11 18.91 17.73Q19.71 17.34 20.26 17.22Q20.80 17.09 21.15 17.10Q21.50 17.12 22.05 17.12L22.05 17.12Q22.11 17.66 21.78 19.49Q21.44 21.31 21.25 22.61Q21.06 23.90 20.91 24.43Q20.77 24.96 20.67 25.79L20.67 25.79L20.45 25.82L20.61 26.02L20.54 26.27Q19.62 26.53 19.07 26.67Q18.53 26.82 17.95 27.09Q17.38 27.36 17.10 27.42Q16.83 27.49 16.42 27.52L16.42 27.52Q16.42 27.33 16.46 27.23Q16.51 27.14 16.90 26.58Q17.28 26.02 17.54 25.81Q17.79 25.60 17.86 25.38Q17.92 25.15 18.08 24.99Q18.24 24.83 18.45 24.34Q18.66 23.84 18.91 23.62Q19.17 23.39 19.30 23.20Q19.42 23.01 19.78 22.56L19.78 22.56Q20.06 22.34 20.45 22.14L20.45 22.14Q20.54 21.89 20.48 21.54Q20.42 21.18 20.35 21.04Q20.29 20.90 20.16 20.70L20.16 20.70Q19.71 20.61 19.41 20.56Q19.10 20.51 18.82 20.43Q18.53 20.35 18.08 20.35Q17.63 20.35 17.28 20.42L17.28 20.42Q17.12 20.86 16.86 21.18L16.86 21.18Q16.38 21.34 16.16 21.44Q15.94 21.54 15.84 21.52Q15.74 21.50 15.58 21.50L15.58 21.50L15.36 21.12L15.20 21.57L15.68 21.95L16.10 22.37Q16.61 22.62 17.18 22.69L17.18 22.69Q16.93 23.68 16.35 25.15Q15.78 26.62 15.46 27.14L15.46 27.14Q15.52 27.55 15.60 27.76Q15.68 27.97 15.68 28.21Q15.68 28.45 15.76 28.61Q15.84 28.77 15.97 29.09L15.97 29.09Q20.58 28.67 20.94 28.72Q21.31 28.77 21.66 28.77L21.66 28.77L21.76 28.86Q21.98 28.83 22.18 28.75Q22.37 28.67 23.04 28.78Q23.71 28.90 24.40 28.96Q25.09 29.02 25.36 29.01Q25.63 28.99 25.92 28.96L25.92 28.96Q25.98 28.51 26.06 28.32Q26.14 28.13 26.03 27.84Q25.92 27.55 25.92 27.41Q25.92 27.26 25.84 27.20Q25.76 27.14 25.70 26.94L25.70 26.94Q24.90 26.50 24.03 26.34L24.03 26.34Q24 26.24 23.98 26.14Q23.97 26.05 24.11 25.74Q24.26 25.44 24.29 25.25Q24.32 25.06 24.48 24.93Q24.64 24.80 24.69 24.50Q24.74 24.19 24.69 23.97Q24.64 23.74 24.69 23.42Q24.74 23.10 25.02 22.83Q25.31 22.56 25.31 22.26Q25.31 21.95 25.28 21.84Q25.25 21.73 25.30 21.52Q25.34 21.31 25.34 20.99Q25.34 20.67 25.63 20.21Q25.92 19.74 25.98 19.34Q26.05 18.94 26.22 18.72Q26.40 18.50 26.54 18.18Q26.69 17.86 26.78 17.78Q26.88 17.70 27.07 17.50L27.07 17.50L27.01 16.90Q26.66 16.58 26.46 16.37Q26.27 16.16 25.79 15.86Q25.31 15.55 24.02 15.25Q22.72 14.94 22.54 14.96Q22.37 14.98 22.08 14.98ZM5.18 18.05L5.18 18.05L4.99 18.18Q4.58 18.69 4.38 19.23L4.38 19.23L4.26 19.17Q4.45 20.19 4.56 20.51Q4.67 20.83 4.64 21.17Q4.61 21.50 4.70 21.78Q4.80 22.05 4.99 22.30Q5.18 22.56 5.20 22.99Q5.22 23.42 5.30 23.65Q5.38 23.87 5.50 24.29L5.50 24.29Q5.28 24.58 5.31 24.93L5.31 24.93L5.38 24.83L5.95 25.41Q6.88 25.98 7.97 26.24L7.97 26.24Q8 26.08 8.10 26.05Q8.19 26.02 8.13 25.79Q8.06 25.57 8.22 25.44Q8.38 25.31 8.37 25.06Q8.35 24.80 8.51 24.66Q8.67 24.51 8.62 24.11Q8.58 23.71 8.62 23.50Q8.67 23.30 8.64 23.06Q8.61 22.82 8.64 22.58Q8.67 22.34 8.46 22.03Q8.26 21.73 8.34 21.54Q8.42 21.34 8.38 21.10Q8.35 20.86 8.21 20.66Q8.06 20.45 7.84 19.90L7.84 19.90L7.17 19.74L6.98 19.58Q6.24 19.49 5.63 19.10L5.63 19.10Q5.41 18.78 5.31 18.66Q5.22 18.53 5.20 18.42Q5.18 18.30 5.18 18.05Z" />
        </g>
        <g transform="translate(296.512,0)">
            <path fill="currentColor"
                d="M13.57 10.08L13.57 10.08L13.38 10.40L12.99 10.37L13.09 10.72L13.02 10.78L13.41 10.78Q13.44 11.17 13.46 11.41Q13.47 11.65 13.41 12.11Q13.34 12.58 13.22 13.79L13.22 13.79Q12.90 13.92 11.63 14.34Q10.37 14.75 9.87 14.77Q9.38 14.78 9.28 14.75Q9.18 14.72 8.99 14.62L8.99 14.62L8.86 14.94L8.45 14.82L8.45 15.01Q10.18 15.87 12.06 16.32L12.06 16.32L11.30 17.31L10.50 18.08Q10.66 18.05 10.70 18Q10.75 17.95 10.86 17.98Q10.98 18.02 11.39 17.82Q11.81 17.63 12.11 17.28Q12.42 16.93 12.54 16.88Q12.67 16.83 12.86 16.70L12.86 16.70Q12.90 16.99 12.96 17.14Q13.02 17.28 13.01 17.58Q12.99 17.89 12.99 18.72L12.99 18.72Q12.29 19.14 11.90 19.34Q11.52 19.55 11.12 19.71Q10.72 19.87 10.56 19.79Q10.40 19.71 10.18 19.62L10.18 19.62Q9.76 19.23 9.98 18.66L9.98 18.66Q9.92 18.75 9.87 18.78Q9.82 18.82 9.66 19.26Q9.50 19.71 9.63 20Q9.76 20.29 9.94 20.46Q10.11 20.64 10.50 21.09L10.50 21.09L11.07 21.25L11.30 21.12L11.55 20.54L12.96 19.36Q12.99 19.52 13.02 19.60Q13.06 19.68 13.06 20.18Q13.06 20.67 13.18 21.89L13.18 21.89L12.83 22.11Q12.99 22.30 13.18 22.30L13.18 22.30L13.09 22.50Q8.06 24.51 6.53 24.88Q4.99 25.25 4.21 25.31Q3.42 25.38 3.23 25.38L3.23 25.38Q3.84 25.66 4.22 25.87Q4.61 26.08 5.33 26.11Q6.05 26.14 6.78 26.13Q7.52 26.11 8.53 25.65Q9.54 25.18 10.82 24.75Q12.10 24.32 12.67 24.03L12.67 24.03Q12.67 24.10 12.67 24.16Q12.67 24.22 12.35 24.51Q12.03 24.80 11.36 25.57L11.36 25.57Q10.34 26.66 9.74 27.14Q9.15 27.62 8.46 28.22Q7.78 28.83 7.15 29.07Q6.53 29.31 6.48 29.31Q6.43 29.31 6.30 29.31L6.30 29.31L6.43 29.57Q6.53 29.60 6.93 29.65Q7.33 29.70 7.78 29.54Q8.22 29.38 9.01 28.99Q9.79 28.61 10.85 27.74Q11.90 26.88 12.62 26.19Q13.34 25.50 13.46 25.49Q13.57 25.47 13.66 25.38L13.66 25.38Q13.82 26.14 13.98 26.66Q14.14 27.17 14.26 28.70Q14.37 30.24 14.30 30.96Q14.24 31.68 14.14 31.94Q14.05 32.19 13.95 32.70L13.95 32.70Q13.73 32.77 13.54 32.78Q13.34 32.80 12.90 32.69Q12.45 32.58 12.06 32.35Q11.68 32.13 11.46 31.92Q11.23 31.71 10.75 31.33L10.75 31.33Q10.85 31.52 10.91 31.62Q10.98 31.71 10.98 31.86Q10.98 32 11.22 32.26Q11.46 32.51 11.90 33.12L11.90 33.12L14.72 35.01L15.07 34.88Q15.36 34.43 15.55 34.18Q15.74 33.92 15.94 33.09Q16.13 32.26 16.14 31.47Q16.16 30.69 16.05 30.14Q15.94 29.60 15.94 29.22Q15.94 28.83 15.81 28.51Q15.68 28.19 15.76 27.78Q15.84 27.36 15.55 26.22Q15.26 25.09 15.26 24.94Q15.26 24.80 15.26 24.61L15.26 24.61L15.36 24.61Q16.51 25.70 18.43 27.20Q20.35 28.70 21.17 29.25Q21.98 29.79 22.72 30.13Q23.46 30.46 24.35 30.51Q25.25 30.56 25.82 30.46Q26.40 30.37 26.93 30.35Q27.46 30.34 27.94 30.21Q28.42 30.08 28.66 30.16Q28.90 30.24 29.28 30.27L29.28 30.27Q29.34 30.14 29.36 30.10Q29.38 30.05 29.34 29.82Q29.31 29.60 29.14 29.46Q28.96 29.31 28.64 28.93L28.64 28.93Q28.13 28.61 27.79 28.37Q27.46 28.13 26.29 27.84Q25.12 27.55 23.94 27.33Q22.75 27.10 20.98 26.24Q19.20 25.38 18.06 24.70Q16.93 24.03 16.53 23.74Q16.13 23.46 15.36 22.98L15.36 22.98Q16.70 22.46 17.57 22.19Q18.43 21.92 19.46 21.78Q20.48 21.63 20.99 21.65Q21.50 21.66 21.60 21.63Q21.70 21.60 21.82 21.60L21.82 21.60L21.98 21.70Q22.27 21.60 22.46 21.60Q22.66 21.60 22.93 21.54Q23.20 21.47 23.47 21.46Q23.74 21.44 24.03 21.22L24.03 21.22L24.35 20.77L24.58 20.67Q24.54 20.54 24.56 20.46Q24.58 20.38 24.48 20.37Q24.38 20.35 24.29 20.19L24.29 20.19Q24.03 20 23.90 19.95Q23.78 19.90 23.50 19.86Q23.23 19.81 22.56 19.84Q21.89 19.87 21.60 19.90Q21.31 19.94 21.02 19.94Q20.74 19.94 20.22 19.76Q19.71 19.58 19.38 19.58Q19.04 19.58 18.83 19.49Q18.62 19.39 18.54 19.44Q18.46 19.49 18.43 19.52L18.43 19.52L19.81 20.45Q19.68 20.51 18.48 20.82Q17.28 21.12 16.61 21.31Q15.94 21.50 14.98 21.86L14.98 21.86L14.91 21.50L15.17 21.22Q16.99 19.87 19.04 18.82L19.04 18.82Q19.33 18.53 19.46 18.43Q19.58 18.34 19.63 18.18Q19.68 18.02 19.74 17.66L19.74 17.66L19.33 17.25Q18.91 17.06 18.67 16.99Q18.43 16.93 18.34 16.88Q18.24 16.83 18.10 16.86Q17.95 16.90 17.78 16.80Q17.60 16.70 17.52 16.77Q17.44 16.83 17.28 16.86L17.28 16.86L17.09 16.70L16.74 17.06Q16.51 17.18 16.10 17.25Q15.68 17.31 15.49 17.38Q15.30 17.44 14.94 17.63L14.94 17.63Q14.88 17.44 14.85 17.31Q14.82 17.18 14.88 16.80Q14.94 16.42 15.01 15.39L15.01 15.39Q15.74 15.14 16.85 14.86Q17.95 14.59 18.26 14.48Q18.56 14.37 19.01 14.11L19.01 14.11Q19.30 13.57 19.58 13.06L19.58 13.06L19.36 12.64Q18.85 12.48 18.64 12.40Q18.43 12.32 18.19 12.32Q17.95 12.32 17.62 12.26Q17.28 12.19 17.01 12.24Q16.74 12.29 16.51 12.50Q16.29 12.70 16.11 12.74Q15.94 12.77 15.74 12.77L15.74 12.77L15.52 13.09L15.20 13.15Q15.17 12.77 15.26 12.24Q15.36 11.71 15.46 11.42Q15.55 11.14 15.63 10.96Q15.71 10.78 15.68 10.46L15.68 10.46Q14.59 10.37 13.57 10.08ZM15.58 17.70L15.65 17.70L16.26 17.86Q16.26 18.08 16.27 18.22Q16.29 18.37 16.02 18.75Q15.74 19.14 15.54 19.36Q15.33 19.58 14.91 20.10L14.91 20.10Q14.82 19.36 14.78 19.06Q14.75 18.75 14.82 18.56Q14.88 18.37 14.98 17.89L14.98 17.89L15.58 17.70Z" />
        </g>
    </g>
</svg>