<svg version="1.1" xmlns="http://www.w3.org/2000/svg"
    viewBox="0 0 343.264 46.53155554199219">
    <g>
        <g>
            <rect fill="#FFFFFF" width="0" height="0" />
        </g>
        <g transform="translate(16,0)">
            <path fill="currentColor"
                d="M16.22 12.77L16.22 12.77Q16.51 12.83 16.69 12.86Q16.86 12.90 17.28 12.88Q17.70 12.86 18.11 12.93Q18.53 12.99 18.83 13.10Q19.14 13.22 19.71 13.44L19.71 13.44Q19.81 13.54 19.87 13.57Q19.94 13.60 19.94 13.74Q19.94 13.89 19.73 14.26Q19.52 14.62 19.39 14.82L19.39 14.82Q19.26 14.91 19.15 14.94Q19.04 14.98 18.78 15.17Q18.53 15.36 17.89 15.49Q17.25 15.62 16.91 15.76Q16.58 15.90 16.18 15.94Q15.78 15.97 15.41 16.18Q15.04 16.38 14.66 16.42Q14.27 16.45 13.73 16.74Q13.18 17.02 12.78 17.09Q12.38 17.15 12 17.34Q11.62 17.54 11.23 17.55Q10.85 17.57 10.45 17.39Q10.05 17.22 8.75 16.82Q7.46 16.42 7.17 16.26L7.17 16.26L7.42 15.97Q7.65 16 7.79 16Q7.94 16 8.53 15.89Q9.12 15.78 10.34 15.28Q11.55 14.78 15.17 13.41L15.17 13.41L15.52 12.90Q15.87 12.93 16.22 12.77ZM12 19.68L12 19.68Q12.10 19.71 12.19 19.70Q12.29 19.68 12.90 19.79Q13.50 19.90 13.98 20.21Q14.46 20.51 14.66 20.50Q14.85 20.48 14.90 20.43Q14.94 20.38 15.01 20.35L15.01 20.35Q15.20 20.42 15.36 20.43Q15.52 20.45 16.10 20.38Q16.67 20.32 17.17 20.32Q17.66 20.32 17.92 20.42Q18.18 20.51 18.62 20.64L18.62 20.64Q18.56 21.28 18.18 21.76L18.18 21.76Q17.66 21.95 17.04 22.21Q16.42 22.46 15.26 22.80Q14.11 23.14 13.92 23.22Q13.73 23.30 13.47 23.52L13.47 23.52Q13.34 23.90 13.30 24.16Q13.25 24.42 12.83 25.12Q12.42 25.82 12.27 26.29Q12.13 26.75 11.78 27.36Q11.42 27.97 11.10 28.42Q10.78 28.86 10.51 29.12Q10.24 29.38 9.66 30.05L9.66 30.05Q9.50 30.14 9.42 30.19Q9.34 30.24 9.12 30.45Q8.90 30.66 8.56 30.80Q8.22 30.94 8 30.94Q7.78 30.94 7.55 31.06Q7.33 31.17 7.02 31.09Q6.72 31.01 6.59 30.91Q6.46 30.82 6.32 30.85Q6.18 30.88 5.94 30.83Q5.70 30.78 5.22 30.66L5.22 30.66Q6.30 30.50 7.26 29.89L7.26 29.89L7.33 29.70L8.35 28.93Q8.90 28.22 9.23 27.86Q9.57 27.49 10.05 26.61Q10.53 25.73 10.72 25.06Q10.91 24.38 10.88 24.32Q10.85 24.26 10.82 24.19L10.82 24.19Q10.56 24.35 10.42 24.50Q10.27 24.64 9.87 24.58Q9.47 24.51 8.98 24.30Q8.48 24.10 8.14 23.98Q7.81 23.87 7.26 23.68L7.26 23.68Q7.46 23.68 9.01 23.09Q10.56 22.50 11.49 22.05L11.49 22.05Q11.55 21.79 11.63 21.62Q11.71 21.44 11.71 20.94Q11.71 20.45 11.63 20.37Q11.55 20.29 11.49 20.13L11.49 20.13L10.75 19.74Q11.36 19.81 12 19.68ZM26.66 21.57L26.66 21.57Q26.72 21.70 26.91 21.73L26.91 21.73Q27.10 22.14 27.28 22.30Q27.46 22.46 27.41 22.94Q27.36 23.42 27.55 23.74Q27.74 24.06 27.84 24.64Q27.94 25.22 27.94 25.54Q27.94 25.86 27.89 26.02Q27.84 26.18 27.89 26.32Q27.94 26.46 27.89 26.67Q27.84 26.88 27.95 27.18Q28.06 27.49 27.89 27.78Q27.71 28.06 27.70 28.58Q27.68 29.09 27.25 29.57Q26.82 30.05 26.72 30.27L26.72 30.27Q26.30 30.56 26.16 30.69Q26.02 30.82 25.73 30.83Q25.44 30.85 24.32 31.12Q23.20 31.39 22.18 31.42Q21.15 31.46 20.34 31.41Q19.52 31.36 18.80 31.15Q18.08 30.94 17.60 30.70Q17.12 30.46 16.78 30.18Q16.45 29.89 15.87 29.31L15.87 29.31Q15.55 28.70 15.39 28.42Q15.23 28.13 15.04 27.46Q14.85 26.78 14.75 25.86Q14.66 24.93 14.53 24.78Q14.40 24.64 14.27 24.45L14.27 24.45Q14.40 24.48 14.50 24.46Q14.59 24.45 14.88 24.61Q15.17 24.77 15.78 25.09L15.78 25.09L16 25.41Q15.97 25.50 15.95 25.57Q15.94 25.63 16.03 26Q16.13 26.37 16.10 26.53Q16.06 26.69 16.19 26.90Q16.32 27.10 16.32 27.46Q16.32 27.81 16.43 27.95Q16.54 28.10 16.53 28.27Q16.51 28.45 16.59 28.67Q16.67 28.90 16.78 29.04Q16.90 29.18 17.18 29.44L17.18 29.44Q17.70 29.66 18.06 29.86Q18.43 30.05 19.17 30.10Q19.90 30.14 20.72 30.06Q21.54 29.98 22.24 29.70Q22.94 29.41 23.15 29.26Q23.36 29.12 23.54 29.10Q23.71 29.09 23.84 28.99Q23.97 28.90 24.22 28.67L24.22 28.67Q24.51 28.19 24.70 27.95Q24.90 27.71 25.14 27.12Q25.38 26.53 25.55 26.30Q25.73 26.08 25.78 25.82Q25.82 25.57 25.79 25.34Q25.76 25.12 25.84 25.07Q25.92 25.02 25.90 24.94Q25.89 24.86 25.92 24.74L25.92 24.74L26.14 24.61Q26.21 24.38 26.21 24.29Q26.21 24.19 26.27 24Q26.34 23.81 26.38 23.52Q26.43 23.23 26.53 22.91Q26.62 22.59 26.66 22.32Q26.69 22.05 26.66 21.57Z" />
        </g>
        <g transform="translate(62.751999999999995,0)">
            <path fill="currentColor"
                d="M25.38 13.09L25.38 13.09Q25.12 13.15 23.41 13.20Q21.70 13.25 19.30 13.90Q16.90 14.56 16.16 14.70Q15.42 14.85 14.29 15.14Q13.15 15.42 11.71 15.71Q10.27 16 9.39 16.10Q8.51 16.19 7.84 16.35Q7.17 16.51 6.58 16.51Q5.98 16.51 5.47 16.70Q4.96 16.90 4.59 16.85Q4.22 16.80 4.08 16.75Q3.94 16.70 3.84 16.54L3.84 16.54L3.87 16.35L3.55 16.51Q3.49 16.86 3.68 17.09L3.68 17.09Q4.32 17.63 4.88 17.92Q5.44 18.21 6.19 18.51Q6.94 18.82 7.25 18.85Q7.55 18.88 7.66 18.94Q7.78 19.01 8.05 18.99Q8.32 18.98 8.70 18.74Q9.09 18.50 10.34 18.11Q11.58 17.73 11.98 17.52Q12.38 17.31 12.85 17.28Q13.31 17.25 13.89 16.99Q14.46 16.74 14.96 16.72Q15.46 16.70 15.84 16.43Q16.22 16.16 16.70 16.14Q17.18 16.13 17.70 15.94Q18.21 15.74 18.64 15.68Q19.07 15.62 19.54 15.44Q20 15.26 20.96 15.07Q21.92 14.88 22.69 14.82Q23.46 14.75 23.54 14.78Q23.62 14.82 23.71 14.85L23.71 14.85Q23.30 15.07 22.85 15.17L22.85 15.17Q23.04 15.17 23.15 15.15Q23.26 15.14 23.39 15.25Q23.52 15.36 23.87 15.31Q24.22 15.26 24.59 15.12Q24.96 14.98 25.26 15.07Q25.57 15.17 25.98 15.10Q26.40 15.04 26.54 15.12Q26.69 15.20 26.85 15.26L26.85 15.26Q27.49 15.04 28.03 14.56L28.03 14.56Q28.03 14.40 28.05 14.32Q28.06 14.24 27.95 14.21Q27.84 14.18 27.68 13.98L27.68 13.98Q26.91 13.60 26.59 13.41Q26.27 13.22 26.03 13.18Q25.79 13.15 25.38 13.09ZM19.04 17.12L19.04 17.12L18.30 17.28L18.34 17.70L18.50 17.70Q18.50 17.82 18.50 17.92Q18.50 18.02 18.70 18.22Q18.91 18.43 18.90 19.33Q18.88 20.22 18.96 23.01Q19.04 25.79 19.17 27.04Q19.30 28.29 19.20 29.02Q19.10 29.76 19.01 29.94Q18.91 30.11 18.85 30.34L18.85 30.34L15.94 28.61L15.74 28.26L15.14 27.87Q15.17 28.06 15.18 28.18Q15.20 28.29 15.30 28.45Q15.39 28.61 15.47 29.07Q15.55 29.54 15.86 29.95Q16.16 30.37 16.32 30.74Q16.48 31.10 16.72 31.39Q16.96 31.68 17.66 32.61L17.66 32.61L18.34 33.15L18.69 33.47Q18.85 33.54 18.93 33.50Q19.01 33.47 19.10 33.57Q19.20 33.66 19.30 33.66Q19.39 33.66 19.55 33.63L19.55 33.63Q20 33.06 20.19 32.83Q20.38 32.61 20.58 32.24Q20.77 31.87 20.96 31.58Q21.15 31.30 21.33 30.82Q21.50 30.34 21.52 29.70Q21.54 29.06 21.54 28.45Q21.54 27.84 21.41 27.38Q21.28 26.91 21.18 25.60Q21.09 24.29 21.06 22.35Q21.02 20.42 21.06 19.73Q21.09 19.04 21.15 17.92L21.15 17.92Q20.83 17.66 20.74 17.57Q20.64 17.47 20.43 17.46Q20.22 17.44 20.08 17.34Q19.94 17.25 19.71 17.22Q19.49 17.18 19.04 17.12ZM18.08 19.01L17.73 18.50Q17.70 18.82 17.68 18.93Q17.66 19.04 17.52 19.14Q17.38 19.23 17.33 19.41Q17.28 19.58 17.10 19.71Q16.93 19.84 16.86 20.10Q16.80 20.35 16.40 20.72Q16 21.09 15.17 22.18L15.17 22.18Q14.62 22.53 14.43 22.70Q14.24 22.88 14.05 22.91Q13.86 22.94 13.47 23.07L13.47 23.07Q13.47 22.94 13.50 22.85Q13.54 22.75 13.95 22.13Q14.37 21.50 14.80 21.12Q15.23 20.74 15.34 20.53Q15.46 20.32 15.74 19.94L15.74 19.94L15.62 19.62Q15.23 19.46 15.02 19.33Q14.82 19.20 14.45 19.12Q14.08 19.04 13.76 19.15Q13.44 19.26 13.10 19.57Q12.77 19.87 12.13 20.30Q11.49 20.74 11.30 20.83Q11.10 20.93 10.78 21.12L10.78 21.12Q11.23 21.18 11.84 21.17Q12.45 21.15 12.67 21.14Q12.90 21.12 12.96 21.15L12.96 21.15Q12.86 21.76 12.67 22.24Q12.48 22.72 12.48 23.01L12.48 23.01Q12.38 23.01 12.35 23.01Q12.32 23.01 11.92 22.64Q11.52 22.27 10.96 22.10Q10.40 21.92 9.84 21.90Q9.28 21.89 9.09 21.79L9.09 21.79Q9.18 21.95 9.23 22.11Q9.28 22.27 9.73 22.98Q10.18 23.68 10.50 24.05Q10.82 24.42 11.42 25.15L11.42 25.15Q11.94 25.41 12.16 25.55Q12.38 25.70 12.53 25.66Q12.67 25.63 12.77 25.57L12.77 25.57Q12.86 25.44 12.91 25.39Q12.96 25.34 12.99 25.15Q13.02 24.96 13.09 24.54L13.09 24.54Q13.41 24.58 13.57 24.58Q13.73 24.58 13.90 24.38Q14.08 24.19 14.56 23.81L14.56 23.81Q15.26 23.01 15.55 22.75Q15.84 22.50 16.02 22.22Q16.19 21.95 16.48 21.71Q16.77 21.47 17.20 20.85Q17.63 20.22 17.66 19.94Q17.70 19.65 17.82 19.57Q17.95 19.49 17.98 19.36Q18.02 19.23 18.08 19.01L18.08 19.01Z" />
        </g>
        <g transform="translate(109.50399999999999,0)">
            <path fill="currentColor"
                d="M13.47 9.28L13.47 9.28L13.06 9.76Q12.99 9.76 12.93 9.74Q12.86 9.73 12.77 9.84Q12.67 9.95 12.45 9.98Q12.22 10.02 11.74 10.14L11.74 10.14L11.71 10.34Q11.94 10.40 12.05 10.40Q12.16 10.40 12.29 10.51Q12.42 10.62 12.67 10.78L12.67 10.78Q12.64 12 12.54 13.14Q12.45 14.27 12.29 15.30L12.29 15.30Q12.10 15.39 11.94 15.50Q11.78 15.62 10.77 15.98Q9.76 16.35 9.17 16.35Q8.58 16.35 8.48 16.29L8.48 16.29Q8.48 16.42 8.48 16.45Q8.48 16.48 8.66 16.67Q8.83 16.86 9.18 17.31L9.18 17.31Q10.43 17.54 11.71 17.22L11.71 17.22Q11.58 17.60 11.55 17.84Q11.52 18.08 11.17 18.86Q10.82 19.65 10.22 20.90Q9.63 22.14 8.82 23.30Q8 24.45 7.54 24.88Q7.07 25.31 6.27 26.18L6.27 26.18Q5.92 26.40 5.68 26.51Q5.44 26.62 4.86 26.70Q4.29 26.78 4.16 26.77Q4.03 26.75 3.84 26.66L3.84 26.66Q3.71 26.43 3.66 26.30Q3.62 26.18 3.66 25.94Q3.71 25.70 3.81 25.50Q3.90 25.31 4.19 24.93L4.19 24.93L3.30 25.70Q2.94 26.43 2.46 26.94L2.46 26.94L2.69 27.17Q3.81 27.33 4.29 27.46Q4.77 27.58 4.96 27.47Q5.15 27.36 5.30 27.47Q5.44 27.58 5.81 27.47Q6.18 27.36 6.66 27.14Q7.14 26.91 7.71 26.46Q8.29 26.02 8.59 25.74Q8.90 25.47 9.34 25.06L9.34 25.06Q9.66 24.67 9.82 24.54Q9.98 24.42 10.14 24.18Q10.30 23.94 10.62 23.66Q10.94 23.39 11.33 22.53Q11.71 21.66 12.19 21.18Q12.67 20.70 12.94 20.08Q13.22 19.46 13.31 18.98Q13.41 18.50 13.63 18.16Q13.86 17.82 13.97 17.50Q14.08 17.18 14.40 16.35L14.40 16.35Q15.30 16.06 17.54 15.39Q19.78 14.72 20.42 14.59Q21.06 14.46 21.50 14.18L21.50 14.18L21.57 13.47L21.15 12.93Q20.77 12.74 20.50 12.62Q20.22 12.51 19.78 12.45Q19.33 12.38 18.77 12.45Q18.21 12.51 17.68 12.64Q17.15 12.77 16.85 12.90Q16.54 13.02 16.16 13.06Q15.78 13.09 15.58 13.02L15.58 13.02Q16 13.18 16.19 13.23Q16.38 13.28 16.48 13.34Q16.58 13.41 16.74 13.57L16.74 13.57Q16.58 13.66 16.43 13.68Q16.29 13.70 15.66 13.98Q15.04 14.27 14.98 14.27Q14.91 14.27 14.75 14.27L14.75 14.27Q14.82 13.70 15.02 12.98Q15.23 12.26 15.26 11.87Q15.30 11.49 15.41 11.20Q15.52 10.91 15.52 10.72Q15.52 10.53 15.60 10.43Q15.68 10.34 15.65 10.24Q15.62 10.14 15.62 9.95L15.62 9.95Q15.39 9.73 15.25 9.60Q15.10 9.47 14.37 9.38Q13.63 9.28 13.57 9.30Q13.50 9.31 13.47 9.28ZM18.66 18.40L18.66 18.40Q16.45 18.85 14.24 18.94L14.24 18.94Q14.34 19.04 14.96 19.07Q15.58 19.10 16.08 19.33Q16.58 19.55 17.44 19.55Q18.30 19.55 19.92 20.02Q21.54 20.48 22.64 20.83Q23.74 21.18 24.26 21.46Q24.77 21.73 25.60 22.18L25.60 22.18L25.79 22.34Q25.12 22.62 24.45 22.62L24.45 22.62L24.64 22.82Q24.80 22.88 24.88 22.88Q24.96 22.88 25.04 22.98Q25.12 23.07 25.39 23.12Q25.66 23.17 25.95 23.17Q26.24 23.17 26.59 23.31Q26.94 23.46 27.12 23.49Q27.30 23.52 27.41 23.60Q27.52 23.68 27.74 23.71Q27.97 23.74 28.42 23.84L28.42 23.84L29.02 23.30Q28.99 22.75 29.01 22.56Q29.02 22.37 28.94 22.21Q28.86 22.05 28.90 21.92Q28.93 21.79 28.77 21.42Q28.61 21.06 28.38 20.91Q28.16 20.77 27.84 20.38L27.84 20.38Q27.04 19.94 26.50 19.63Q25.95 19.33 24.88 19.06Q23.81 18.78 22.98 18.75Q22.14 18.72 21.36 18.56Q20.58 18.40 20.05 18.43Q19.52 18.46 18.66 18.40ZM15.74 21.06L15.74 21.06L15.52 21.15L15.04 21.60Q14.40 22.05 13.28 22.66Q12.16 23.26 12.03 23.26L12.03 23.26L12.61 23.46L12.64 23.55L14.14 23.58Q13.86 24.16 13.66 24.48Q13.47 24.80 12.99 25.23Q12.51 25.66 11.52 26.91L11.52 26.91L11.36 26.94L11.26 27.04L11.07 27.17Q11.17 27.49 11.01 27.71L11.01 27.71L11.20 27.94Q11.55 27.97 11.92 27.84Q12.29 27.71 13.23 27.47Q14.18 27.23 14.66 27.17L14.66 27.17Q14.72 27.39 14.77 27.50Q14.82 27.62 14.86 27.90Q14.91 28.19 15.01 28.96L15.01 28.96Q14.66 29.15 14.34 29.23Q14.02 29.31 12.80 29.76Q11.58 30.21 11.15 30.50Q10.72 30.78 10.29 30.80Q9.86 30.82 9.09 30.56Q8.32 30.30 7.92 30.11Q7.52 29.92 7.04 29.70L7.04 29.70L7.26 30.21L8.67 31.52L9.25 32.06Q10.59 32.48 11.90 31.84L11.90 31.84Q12.67 32.54 13.06 32.88Q13.44 33.22 13.89 33.55Q14.34 33.89 14.64 34Q14.94 34.11 15.12 34.29Q15.30 34.46 15.78 34.54Q16.26 34.62 16.35 34.59Q16.45 34.56 16.54 34.56L16.54 34.56Q16.70 34.24 16.86 34.06Q17.02 33.89 17.18 33.28Q17.34 32.67 17.18 31.66Q17.02 30.66 16.99 30.27Q16.96 29.89 16.93 29.74Q16.90 29.60 16.86 29.34L16.86 29.34Q17.02 29.28 17.17 29.22Q17.31 29.15 17.74 29.18Q18.18 29.22 18.46 29.46Q18.75 29.70 19.26 30.18L19.26 30.18Q19.74 30.69 19.97 30.88Q20.19 31.07 20.26 31.20Q20.32 31.33 20.42 31.55L20.42 31.55Q19.81 31.71 19.23 31.58L19.23 31.58Q19.65 31.84 20.13 32L20.13 32L20.22 32.19Q21.38 32.54 22.50 32.96L22.50 32.96L23.01 32.70Q23.04 32.54 23.10 32.45Q23.17 32.35 23.30 31.71Q23.42 31.07 23.42 30.78Q23.42 30.50 23.14 30.29Q22.85 30.08 22.34 29.44L22.34 29.44Q21.86 29.06 21.60 28.86Q21.34 28.67 20.88 28.51Q20.42 28.35 19.73 28.26Q19.04 28.16 18.43 28.26Q17.82 28.35 16.70 28.38L16.70 28.38Q16.54 27.78 16.74 27.14L16.74 27.14Q16.45 26.82 16.06 26.72L16.06 26.72Q19.65 25.63 19.82 25.52Q20 25.41 20.16 25.31L20.16 25.31Q20.16 25.22 20.18 25.12Q20.19 25.02 20.08 24.93Q19.97 24.83 19.78 24.48L19.78 24.48Q19.65 24.48 19.34 24.22Q19.04 23.97 18.77 24.02Q18.50 24.06 18.24 24.21Q17.98 24.35 17.86 24.34Q17.73 24.32 17.63 24.29L17.63 24.29L17.41 24.67Q16.29 25.22 15.52 25.46Q14.75 25.70 13.55 26.45Q12.35 27.20 12.21 27.22Q12.06 27.23 11.84 27.23L11.84 27.23L13.38 25.70Q13.89 25.28 14.16 25.09Q14.43 24.90 14.67 24.62Q14.91 24.35 15.20 24.21Q15.49 24.06 15.92 23.66Q16.35 23.26 16.66 23.14Q16.96 23.01 17.50 22.72L17.50 22.72L18.02 22.24L17.86 21.76Q17.34 21.47 17.09 21.41Q16.83 21.34 16.61 21.25Q16.38 21.15 16.22 21.12Q16.06 21.09 15.74 21.06ZM15.04 30.18L15.10 30.21L15.17 32.38Q15.10 32.45 14.50 32.35Q13.89 32.26 13.54 32.08Q13.18 31.90 12.51 31.52L12.51 31.52Q13.70 30.69 15.04 30.18L15.04 30.18Z" />
        </g>
        <g transform="translate(156.256,0)">
            <path fill="currentColor"
                d="M10.14 11.42L10.14 11.42Q9.86 11.49 9.63 11.62L9.63 11.62L9.28 11.49Q9.25 11.62 9.22 11.73Q9.18 11.84 9.09 12.02Q8.99 12.19 8.86 12.61Q8.74 13.02 8.22 13.87Q7.71 14.72 7.33 15.50Q6.94 16.29 6.67 16.62Q6.40 16.96 6.30 17.23Q6.21 17.50 6.10 17.57Q5.98 17.63 5.98 17.73Q5.98 17.82 5.81 17.97Q5.63 18.11 5.07 18.99Q4.51 19.87 4.22 20.45Q3.94 21.02 3.92 21.20Q3.90 21.38 3.82 21.46Q3.74 21.54 3.74 21.60Q3.74 21.66 3.74 21.86L3.74 21.86Q3.94 21.98 4.06 22.08Q4.19 22.18 4.58 22.21Q4.96 22.24 5.33 22.03Q5.70 21.82 6.14 21.49Q6.59 21.15 7.58 20.32L7.58 20.32Q8.10 19.71 8.67 19.02Q9.25 18.34 9.47 17.95Q9.70 17.57 10.26 16.83Q10.82 16.10 11.39 15.46L11.39 15.46L11.65 15.26Q11.78 15.01 11.86 14.88Q11.94 14.75 12.13 14.54Q12.32 14.34 12.37 14.11Q12.42 13.89 12.66 13.71Q12.90 13.54 13.01 13.26Q13.12 12.99 13.04 12.86Q12.96 12.74 12.90 12.51L12.90 12.51Q12.61 12.26 12.42 12.21Q12.22 12.16 12.03 12.05Q11.84 11.94 11.50 11.86Q11.17 11.78 10.93 11.66Q10.69 11.55 10.46 11.50Q10.24 11.46 10.14 11.42ZM26.94 12.61L26.94 12.61Q25.82 12.80 25.15 12.90Q24.48 12.99 23.07 13.49Q21.66 13.98 20.50 14.46Q19.33 14.94 18.67 15.28Q18.02 15.62 17.09 16.02Q16.16 16.42 13.89 17.47Q11.62 18.53 11.25 18.74Q10.88 18.94 10.40 19.17L10.40 19.17Q11.20 19.33 11.42 19.44Q11.65 19.55 12.11 19.41Q12.58 19.26 15.39 18.03Q18.21 16.80 19.30 16.48Q20.38 16.16 21.10 15.87Q21.82 15.58 23.09 15.30Q24.35 15.01 25.44 14.66Q26.53 14.30 26.96 14.22Q27.39 14.14 27.70 14.03Q28 13.92 28.70 13.70L28.70 13.70L28.93 13.41L28.83 12.96Q28.64 12.80 28.21 12.72Q27.78 12.64 27.55 12.62Q27.33 12.61 26.94 12.61ZM20.38 17.70L20.38 17.70Q19.74 17.82 19.49 17.87Q19.23 17.92 19.07 18.03Q18.91 18.14 18.69 18.40L18.69 18.40Q18.34 19.17 18.05 19.78Q17.76 20.38 17.65 20.54Q17.54 20.70 17.25 21.15L17.25 21.15Q16.93 20.99 16.75 20.85Q16.58 20.70 16.13 20.69Q15.68 20.67 15.25 20.88Q14.82 21.09 14.54 21.34Q14.27 21.60 13.79 22.11L13.79 22.11Q13.02 21.95 12.64 21.87Q12.26 21.79 12.16 21.81Q12.06 21.82 11.94 21.86L11.94 21.86Q11.94 21.98 11.97 22.08Q12 22.18 12.35 22.56Q12.70 22.94 12.70 23.06Q12.70 23.17 12.77 23.30L12.77 23.30Q13.12 23.39 13.36 23.44Q13.60 23.49 14.02 23.79Q14.43 24.10 14.83 24.13Q15.23 24.16 15.62 24.16L15.62 24.16L15.87 23.78Q15.58 23.20 15.10 22.69L15.10 22.69Q15.23 22.24 15.25 22.05Q15.26 21.86 15.33 21.79Q15.39 21.73 15.49 21.57L15.49 21.57Q15.65 21.73 15.74 21.79Q15.84 21.86 15.95 22.24Q16.06 22.62 16.10 22.72L16.10 22.72Q16.29 22.78 16.46 22.83Q16.64 22.88 17.12 23.20Q17.60 23.52 17.81 23.58Q18.02 23.65 18.30 23.71L18.30 23.71L18.53 23.52Q18.37 22.91 18.24 22.51Q18.11 22.11 18.45 21.50Q18.78 20.90 19.01 19.94Q19.23 18.98 19.23 18.88Q19.23 18.78 19.23 18.66L19.23 18.66L19.49 18.46L19.87 18.59Q20.10 19.26 20.14 19.76Q20.19 20.26 20.35 21.33Q20.51 22.40 20.66 23.46Q20.80 24.51 20.80 24.94Q20.80 25.38 20.99 25.82L20.99 25.82Q20.90 25.86 20.88 25.94Q20.86 26.02 20.96 26.94Q21.06 27.87 20.91 29.38Q20.77 30.88 20.58 31.22Q20.38 31.55 20.29 31.95Q20.19 32.35 20.10 32.46Q20 32.58 19.90 32.70L19.90 32.70Q18.94 32.64 18.08 32.32L18.08 32.32L18.02 32.38L18.98 33.12L19.55 33.70L20.51 34.40L20.61 34.50L21.02 34.78L21.60 34.27Q21.79 33.92 21.87 33.79Q21.95 33.66 22.19 33.36Q22.43 33.06 22.59 32.50Q22.75 31.94 22.78 31.63Q22.82 31.33 22.99 31.07Q23.17 30.82 23.25 30.08Q23.33 29.34 23.23 28.96Q23.14 28.58 23.23 28.32Q23.33 28.06 23.20 27.62Q23.07 27.17 23.10 26.62Q23.14 26.08 23.02 25.78Q22.91 25.47 22.99 25.14Q23.07 24.80 22.91 24.29Q22.75 23.78 22.78 23.46Q22.82 23.14 22.72 22.78Q22.62 22.43 22.66 22.10Q22.69 21.76 22.54 21.38Q22.40 20.99 22.46 20.51Q22.53 20.03 22.46 19.63Q22.40 19.23 22.48 18.99Q22.56 18.75 22.69 18.56L22.69 18.56L22.40 18.27Q22.11 18.11 21.95 18Q21.79 17.89 21.47 17.86Q21.15 17.82 20.38 17.70ZM7.84 22.37L7.78 22.30Q7.90 23.01 8 23.42Q8.10 23.84 8.38 24.61Q8.67 25.38 8.82 26.16Q8.96 26.94 9.06 27.17Q9.15 27.39 9.14 27.50Q9.12 27.62 9.18 27.74Q9.25 27.87 9.34 28.13L9.34 28.13Q10.11 28.58 10.46 28.82Q10.82 29.06 10.96 29.04Q11.10 29.02 11.36 28.96L11.36 28.96Q11.42 28.86 11.54 28.32Q11.65 27.78 11.44 27.55Q11.23 27.33 11.30 27.02Q11.36 26.72 11.18 26.35Q11.01 25.98 10.93 25.50Q10.85 25.02 10.86 24.37Q10.88 23.71 10.74 23.23Q10.59 22.75 10.51 22.72Q10.43 22.69 10.40 22.62L10.40 22.62L10.11 23.20Q9.76 22.94 9.60 22.78Q9.44 22.62 9.09 22.51Q8.74 22.40 8.46 22.37Q8.19 22.34 8.10 22.35Q8 22.37 7.84 22.37L7.84 22.37Z" />
        </g>
        <g transform="translate(203.008,0)">
            <path fill="currentColor"
                d="M17.31 11.49L16.93 11.26Q16.54 11.33 16.34 11.34Q16.13 11.36 15.92 11.34Q15.71 11.33 15.58 11.41Q15.46 11.49 15.14 11.65L15.14 11.65Q14.91 11.97 14.70 12.16Q14.50 12.35 14.21 13.01Q13.92 13.66 13.73 14.22Q13.54 14.78 13.15 16L13.15 16L11.94 16.45L11.14 15.52Q10.59 15.33 10.30 15.23Q10.02 15.14 8.93 14.93Q7.84 14.72 7.49 14.53L7.49 14.53L7.78 14.91L8.93 15.74L9.76 17.06Q9.60 17.12 9.46 17.20Q9.31 17.28 8.75 17.47Q8.19 17.66 7.73 17.65Q7.26 17.63 6.46 17.66L6.46 17.66L6.43 17.34L6.62 17.12L5.92 17.25L4.77 18.50L4.80 18.66Q5.02 18.85 5.26 18.96Q5.50 19.07 6.22 19.20Q6.94 19.33 7.65 19.42Q8.35 19.52 8.90 19.20Q9.44 18.88 9.81 18.78Q10.18 18.69 10.69 18.59L10.69 18.59L11.49 19.65Q11.84 19.78 12.06 19.84Q12.29 19.90 12.50 20.11Q12.70 20.32 12.90 20.34Q13.09 20.35 13.17 20.27Q13.25 20.19 13.41 20.10L13.41 20.10Q13.34 19.97 13.25 19.84L13.25 19.84Q13.38 18.69 13.66 17.50L13.66 17.50L15.26 17.02L15.33 17.15L13.98 19.81L14.24 19.65L14.37 19.74L14.69 19.55Q15.26 18.78 15.90 18.02L15.90 18.02L16.06 18.05L16.61 17.41Q17.12 16.90 17.31 16.69Q17.50 16.48 17.82 16.37Q18.14 16.26 18.91 16.08Q19.68 15.90 22.37 15.71Q25.06 15.52 25.31 15.54Q25.57 15.55 26.02 15.26Q26.46 14.98 26.66 14.75L26.66 14.75L26.78 14.40L26.62 14.21L26.72 13.98Q26.59 13.86 26.42 13.73Q26.24 13.60 25.62 13.55Q24.99 13.50 23.97 13.55Q22.94 13.60 21.79 13.73Q20.64 13.86 20.19 13.94Q19.74 14.02 19.30 14.14L19.30 14.14L19.52 13.82L19.81 13.60L20.32 12.74Q20.10 12.51 20.13 12.22L20.13 12.22Q19.62 11.97 19.33 11.90Q19.04 11.84 18.91 11.66Q18.78 11.49 18.50 11.50Q18.21 11.52 17.94 11.41Q17.66 11.30 17.57 11.38Q17.47 11.46 17.31 11.49L17.31 11.49ZM15.46 12.22L15.65 12.22L16.54 12.51L15.94 15.04L14.11 15.71Q14.11 15.39 14.22 14.61Q14.34 13.82 14.53 13.57Q14.72 13.31 14.82 13.09Q14.91 12.86 15.06 12.75Q15.20 12.64 15.28 12.53Q15.36 12.42 15.46 12.22L15.46 12.22ZM14.62 20.38L14.62 20.38L14.30 20.77Q14.40 20.80 14.51 20.80Q14.62 20.80 14.75 20.93Q14.88 21.06 15.17 21.31L15.17 21.31Q15.46 22.34 15.58 22.62Q15.71 22.91 15.71 23.28Q15.71 23.65 15.20 24.19Q14.69 24.74 14.16 25.74Q13.63 26.75 13.20 27.86Q12.77 28.96 12.64 29.09Q12.51 29.22 12.38 29.34L12.38 29.34Q11.71 27.68 11.50 27.02Q11.30 26.37 11.07 26.16Q10.85 25.95 10.53 25.57L10.53 25.57L11.17 25.02L11.52 24.51Q12.38 23.62 12.77 23.26Q13.15 22.91 13.28 22.82Q13.41 22.72 13.60 22.62L13.60 22.62L14.02 22.05L13.95 21.76Q13.76 21.57 13.65 21.46Q13.54 21.34 13.12 21.25Q12.70 21.15 12.42 21.17Q12.13 21.18 11.87 21.06Q11.62 20.93 11.49 20.94Q11.36 20.96 11.23 20.96L11.23 20.96Q11.23 21.06 11.34 21.25Q11.46 21.44 11.36 21.74Q11.26 22.05 10.82 22.51Q10.37 22.98 9.41 24.35L9.41 24.35Q8.77 25.02 7.90 25.41L7.90 25.41Q7.30 26.11 6.96 26.40Q6.62 26.69 6.30 27.14Q5.98 27.58 5.87 27.97Q5.76 28.35 5.92 28.75Q6.08 29.15 6.03 29.18Q5.98 29.22 5.98 29.31L5.98 29.31L6.34 29.50Q7.46 28.38 7.90 27.94Q8.35 27.49 8.64 27.30Q8.93 27.10 9.38 26.72L9.38 26.72Q9.50 27.04 9.60 27.22Q9.70 27.39 9.81 28.03Q9.92 28.67 10.29 29.62Q10.66 30.56 10.67 30.77Q10.69 30.98 10.72 31.23L10.72 31.23Q11.04 31.42 11.18 31.49Q11.33 31.55 11.47 31.71Q11.62 31.87 11.76 31.89Q11.90 31.90 12.06 32.10Q12.22 32.29 12.42 32.32Q12.61 32.35 12.69 32.32Q12.77 32.29 12.86 32.19L12.86 32.19Q12.96 32.03 13.06 31.98Q13.15 31.94 13.10 31.50Q13.06 31.07 13.36 30.43Q13.66 29.79 13.79 28.80Q13.92 27.81 14.35 26.70Q14.78 25.60 15.06 25.22Q15.33 24.83 15.71 24.16L15.71 24.16Q15.74 24.26 15.81 24.30Q15.87 24.35 15.89 24.75Q15.90 25.15 16.03 26.14L16.03 26.14L15.36 26.56L15.78 26.46L15.55 26.66Q15.07 26.91 14.69 27.20L14.69 27.20Q14.78 27.26 14.86 27.30Q14.94 27.33 15.15 27.33Q15.36 27.33 15.57 27.30Q15.78 27.26 15.87 27.18Q15.97 27.10 16.16 27.04L16.16 27.04Q16.64 28.06 16.88 28.56Q17.12 29.06 17.65 29.87Q18.18 30.69 18.50 30.99Q18.82 31.30 19.33 31.84L19.33 31.84Q19.87 32.16 20.22 32.35Q20.58 32.54 21.22 32.77Q21.86 32.99 22.83 33.07Q23.81 33.15 24.98 33.10Q26.14 33.06 26.38 32.90Q26.62 32.74 26.98 32.61L26.98 32.61Q27.07 32.48 27.14 31.98Q27.20 31.49 27.10 31.14L27.10 31.14Q26.66 30.98 26.24 30.86Q25.82 30.75 24.16 30.83Q22.50 30.91 21.70 30.75Q20.90 30.59 20.67 30.46Q20.45 30.34 20.06 30.02L20.06 30.02Q19.58 29.41 19.34 29.14Q19.10 28.86 18.78 28.35Q18.46 27.84 18.27 27.28Q18.08 26.72 18.08 26.54Q18.08 26.37 18.08 26.11L18.08 26.11L19.94 24.90L20.19 24.61Q20.83 24.19 21.44 23.71Q22.05 23.23 22.24 23.06Q22.43 22.88 22.66 22.85L22.66 22.85Q22.75 22.66 22.85 22.58Q22.94 22.50 22.90 22.37Q22.85 22.24 22.82 21.92L22.82 21.92L20.70 21.09Q20.54 21.15 20.46 21.17Q20.38 21.18 19.74 21.25Q19.10 21.31 18.48 21.49Q17.86 21.66 17.65 21.78Q17.44 21.89 17.09 22.05L17.09 22.05L16.99 21.18Q16.74 20.99 16.61 20.85Q16.48 20.70 16.03 20.56Q15.58 20.42 15.33 20.45Q15.07 20.48 14.93 20.45Q14.78 20.42 14.62 20.38ZM18.72 21.73L18.72 21.73L19.33 21.86Q19.36 21.95 19.44 22.10Q19.52 22.24 19.31 22.67Q19.10 23.10 18.86 23.34Q18.62 23.58 18.21 24.19L18.21 24.19L17.79 24.58Q17.60 23.49 17.52 23.07Q17.44 22.66 17.38 22.54Q17.31 22.43 17.25 22.27L17.25 22.27Q17.57 22.05 17.73 21.97Q17.89 21.89 18.21 21.79Q18.53 21.70 18.72 21.73ZM8.54 25.22L8.58 25.28L7.10 27.04L7.04 26.94L7.97 25.70L8.54 25.22Z" />
        </g>
        <g transform="translate(249.76000000000002,0)">
            <path fill="currentColor"
                d="M16.86 11.62L16.86 11.62L15.78 12.13Q15.49 12.61 14.91 13.23Q14.34 13.86 14.14 14.19Q13.95 14.53 13.54 15.17L13.54 15.17Q12.96 15.46 12.32 15.55L12.32 15.55Q11.87 14.98 11.60 14.67Q11.33 14.37 10.75 14.08Q10.18 13.79 9.89 13.52Q9.60 13.25 9.50 13.22Q9.41 13.18 9.31 13.15L9.31 13.15L9.41 12.99L8.99 13.25Q9.12 13.57 9.25 13.73Q9.38 13.89 9.42 14.27Q9.47 14.66 9.60 14.99Q9.73 15.33 9.98 16.16L9.98 16.16Q8.48 16.61 7.73 16.82Q6.98 17.02 6.18 17.01Q5.38 16.99 4.83 16.90L4.83 16.90L4.77 16.80L5.22 16.54L5.41 16.35L5.34 16.29Q4.77 16.61 4.19 16.67L4.19 16.67L4.16 17.12Q4.51 17.15 4.77 17.18Q5.02 17.22 5.70 17.60Q6.37 17.98 7.01 18.18Q7.65 18.37 8.18 18.42Q8.70 18.46 9.12 18.40Q9.54 18.34 9.74 18.22Q9.95 18.11 10.21 18.11Q10.46 18.11 10.98 17.98L10.98 17.98Q11.52 18.66 12.35 18.98L12.35 18.98L12.51 18.88Q12.70 19.14 13.09 19.14L13.09 19.14L13.98 17.22L15.10 16.93Q15.07 17.06 15.07 17.17Q15.07 17.28 14.70 17.78Q14.34 18.27 13.81 18.75Q13.28 19.23 12.99 19.71Q12.70 20.19 12.69 20.27Q12.67 20.35 12.70 20.48L12.70 20.48L12.83 20.51L14.05 19.46L14.85 18.94Q14.85 19.04 14.86 19.06Q14.88 19.07 14.45 19.87Q14.02 20.67 13.42 21.25Q12.83 21.82 12.74 22Q12.64 22.18 12.48 22.53L12.48 22.53L12.61 22.75Q12.80 22.69 12.93 22.70Q13.06 22.72 13.28 22.58Q13.50 22.43 14.02 22.14L14.02 22.14L14.08 22.27L13.92 22.37L13.98 22.62L15.26 23.01L13.82 24.45Q13.06 25.02 12.77 25.25Q12.48 25.47 12.13 25.55Q11.78 25.63 11.20 26Q10.62 26.37 10.48 26.42Q10.34 26.46 10.14 26.50L10.14 26.50Q10.62 26.88 11.23 26.66L11.23 26.66Q10.59 27.68 9.86 28.54L9.86 28.54Q9.73 28 9.73 27.70Q9.73 27.39 9.50 27.01Q9.28 26.62 9.31 26.35Q9.34 26.08 9.31 25.89Q9.28 25.70 9.31 25.15L9.31 25.15L9.73 24.99L9.89 24.54L9.66 24.26Q9.31 23.97 9.02 23.90Q8.74 23.84 8.45 23.76Q8.16 23.68 7.90 23.65Q7.65 23.62 7.57 23.57Q7.49 23.52 7.33 23.55L7.33 23.55Q7.42 23.81 7.52 24Q7.62 24.19 7.94 24.50Q8.26 24.80 8.37 25.47Q8.48 26.14 8.38 27.52Q8.29 28.90 8.24 29.06Q8.19 29.22 8.13 29.34L8.13 29.34Q8.19 29.63 8.26 29.78Q8.32 29.92 8.29 30.16Q8.26 30.40 8.34 30.64Q8.42 30.88 8.61 31.46L8.61 31.46Q8.96 31.55 9.10 31.62Q9.25 31.68 9.38 31.65Q9.50 31.62 9.60 31.55L9.60 31.55Q9.92 31.14 10.02 31.02Q10.11 30.91 10.14 30.66Q10.18 30.40 10.85 29.36Q11.52 28.32 11.42 27.90Q11.33 27.49 11.50 27.30Q11.68 27.10 11.94 26.40L11.94 26.40L12.51 26.21Q15.26 31.42 15.54 31.81Q15.81 32.19 16.19 32.70L16.19 32.70Q16.64 32.70 17.06 32.70L17.06 32.70Q16.96 32.35 17.12 32.03L17.12 32.03Q16.90 31.30 16.51 30.59L16.51 30.59Q16.70 30.56 16.94 30.53Q17.18 30.50 18.40 30.54Q19.62 30.59 20.50 30.75Q21.38 30.91 21.44 30.96Q21.50 31.01 21.57 31.04L21.57 31.04L22.34 30.46Q22.37 30.37 22.42 30.27Q22.46 30.18 22.40 30.08Q22.34 29.98 22.34 29.76L22.34 29.76Q22.11 29.50 21.62 29.31Q21.12 29.12 20.88 29.04Q20.64 28.96 20.29 28.86L20.29 28.86Q20.83 28.06 21.63 27.39L21.63 27.39L22.05 27.17L22.11 26.85Q21.76 26.69 21.86 26.37L21.86 26.37Q20.96 25.82 20.51 25.57Q20.06 25.31 19.78 25.30Q19.49 25.28 19.23 25.18Q18.98 25.09 18.78 25.22Q18.59 25.34 18.48 25.38Q18.37 25.41 18.24 25.44L18.24 25.44L18.02 25.66L18.08 25.86Q16.77 26.37 16.16 26.56Q15.55 26.75 15.18 26.93Q14.82 27.10 14.72 27.09Q14.62 27.07 14.59 27.10Q14.56 27.14 14.43 27.14L14.43 27.14L14.43 26.94L14.14 26.75Q13.86 26.24 13.50 25.86L13.50 25.86Q13.98 25.63 14.13 25.50Q14.27 25.38 14.48 25.41Q14.69 25.44 15.18 24.99Q15.68 24.54 16.86 23.49L16.86 23.49Q17.34 23.55 17.79 23.60Q18.24 23.65 20.10 24.05Q21.95 24.45 24.35 25.23Q26.75 26.02 27.07 26.08Q27.39 26.14 27.78 26.18L27.78 26.18Q27.68 26.05 27.84 25.86L27.84 25.86Q27.74 25.66 27.68 25.47Q27.62 25.28 27.60 25.14Q27.58 24.99 27.49 24.67L27.49 24.67Q26.82 24.06 26.45 23.76Q26.08 23.46 25.71 23.34Q25.34 23.23 25.09 23.23Q24.83 23.23 24.14 23.06Q23.46 22.88 22.42 22.78Q21.38 22.69 20.53 22.70Q19.68 22.72 19.20 22.69Q18.72 22.66 17.86 22.59L17.86 22.59L18.82 21.70Q19.04 21.63 19.26 21.42Q19.49 21.22 20.10 20.75Q20.70 20.29 21.06 20.06L21.06 20.06L21.06 19.90Q20.70 19.58 20.51 19.36Q20.32 19.14 19.89 18.96Q19.46 18.78 19.17 18.78Q18.88 18.78 18.40 18.72L18.40 18.72L18.24 19.07Q18.02 19.17 17.90 19.23Q17.79 19.30 17.50 19.33Q17.22 19.36 16.82 19.12Q16.42 18.88 16.06 18.74Q15.71 18.59 15.66 18.61Q15.62 18.62 15.52 18.62L15.52 18.62Q16.03 17.98 16.42 17.50Q16.80 17.02 16.99 16.85Q17.18 16.67 17.66 16.26L17.66 16.26Q17.89 16.16 18 16.11Q18.11 16.06 18.51 16Q18.91 15.94 19.49 15.74Q20.06 15.55 20.86 15.38Q21.66 15.20 22.53 15.28Q23.39 15.36 24.02 15.49Q24.64 15.62 24.94 15.58Q25.25 15.55 25.66 15.55L25.66 15.55L25.79 15.36L25.89 15.33L25.82 15.17L26.05 14.98Q25.82 14.78 25.63 14.61Q25.44 14.43 24.54 14.24Q23.65 14.05 22.85 13.94Q22.05 13.82 21.41 13.78Q20.77 13.73 20.27 13.79Q19.78 13.86 18.94 13.92L18.94 13.92L19.01 13.60L19.68 13.22L19.42 12.58Q18.85 12.22 18.61 12.05Q18.37 11.87 18.27 11.89Q18.18 11.90 18.05 11.87L18.05 11.87L17.89 11.65Q17.86 11.74 17.79 11.76Q17.73 11.78 17.52 11.74Q17.31 11.71 16.86 11.62ZM16.35 12.38L16.58 12.45L16.67 12.54L16.22 14.46L14.62 14.94Q14.59 14.82 14.58 14.77Q14.56 14.72 14.72 14.40Q14.88 14.08 15.22 13.62Q15.55 13.15 15.74 12.94Q15.94 12.74 16.35 12.38L16.35 12.38ZM17.47 19.81L17.57 19.84L17.79 20L15.71 22.50L14.34 22.43L14.18 22.24Q15.74 21.12 17.31 19.94L17.31 19.94L17.47 19.81ZM8.90 19.97L8.90 19.97L8.74 20.32L8.96 20.51Q9.09 20.64 9.22 20.69Q9.34 20.74 9.73 21.15Q10.11 21.57 10.38 21.63Q10.66 21.70 10.82 21.87Q10.98 22.05 11.46 22.08Q11.94 22.11 12 22.08Q12.06 22.05 12.16 21.95L12.16 21.95Q12.26 21.73 12.32 21.68Q12.38 21.63 12.35 21.49Q12.32 21.34 12.26 21.15L12.26 21.15Q11.78 20.74 11.49 20.51Q11.20 20.29 10.61 20.18Q10.02 20.06 9.54 20.05Q9.06 20.03 8.90 19.97ZM14.53 27.23L14.72 27.26Q15.04 27.36 15.26 27.42Q15.49 27.49 15.89 27.50Q16.29 27.52 16.64 27.49Q16.99 27.46 17.60 27.36L17.60 27.36Q17.57 27.68 17.38 28.18Q17.18 28.67 17.04 28.93Q16.90 29.18 16.80 29.28Q16.70 29.38 16.64 29.60L16.64 29.60L16.13 29.76Q15.65 29.02 15.20 28.34Q14.75 27.65 14.66 27.55Q14.56 27.46 14.53 27.23L14.53 27.23Z" />
        </g>
        <g transform="translate(296.512,0)">
            <path fill="currentColor"
                d="M17.15 10.69L15.42 10.53Q15.17 10.62 15.04 10.64Q14.91 10.66 14.67 10.78Q14.43 10.91 13.98 11.01Q13.54 11.10 13.34 11.25Q13.15 11.39 12.86 11.65L12.86 11.65L12.77 11.55L12.42 11.90Q12.77 12.26 13.25 12.35L13.25 12.35Q13.41 13.02 13.38 13.42Q13.34 13.82 13.39 14.51Q13.44 15.20 13.42 15.81Q13.41 16.42 13.42 16.74Q13.44 17.06 13.34 17.54L13.34 17.54Q12.19 18.05 10.94 18.18L10.94 18.18L10.56 17.89L10.27 18.18L9.92 18.24Q9.79 18.69 10.24 18.98L10.24 18.98Q11.10 19.10 11.49 19.17Q11.87 19.23 12.14 19.31Q12.42 19.39 12.78 19.41Q13.15 19.42 13.34 19.42L13.34 19.42Q13.34 20.19 13.38 20.56Q13.41 20.93 13.36 21.30Q13.31 21.66 13.26 21.87Q13.22 22.08 13.17 22.14Q13.12 22.21 13.12 22.30L13.12 22.30Q12.38 22.62 9.94 23.33Q7.49 24.03 6.56 24.19Q5.63 24.35 5.25 24.29Q4.86 24.22 4.67 24.18Q4.48 24.13 4.26 24L4.26 24Q4.90 23.36 5.82 23.07L5.82 23.07L5.98 22.82L3.36 23.52Q2.88 23.97 2.62 24.21Q2.37 24.45 2.34 24.61L2.34 24.61Q2.43 24.67 3.39 24.88Q4.35 25.09 4.82 25.28Q5.28 25.47 5.82 25.49Q6.37 25.50 6.98 25.30Q7.58 25.09 8.30 24.99Q9.02 24.90 10.02 24.54Q11.01 24.19 11.71 24.10Q12.42 24 12.94 23.76Q13.47 23.52 14.26 23.49Q15.04 23.46 16.05 23.14Q17.06 22.82 18.61 22.56Q20.16 22.30 21.89 22.30Q23.62 22.30 24.90 22.51Q26.18 22.72 26.78 22.77Q27.39 22.82 27.81 22.85L27.81 22.85L27.84 22.98L28 22.82Q28.67 22.69 29.34 22.34L29.34 22.34L29.54 21.89Q29.38 21.66 29.33 21.54Q29.28 21.41 29.09 21.28Q28.90 21.15 28.48 20.70L28.48 20.70Q28.16 20.58 27.98 20.56Q27.81 20.54 27.73 20.53Q27.65 20.51 27.52 20.45L27.52 20.45Q27.42 20.48 27.41 20.50Q27.39 20.51 26.40 20.35Q25.41 20.19 24.18 20.26Q22.94 20.32 21.23 20.61Q19.52 20.90 18.34 21.22Q17.15 21.54 16.96 21.54Q16.77 21.54 16.58 21.54L16.58 21.54Q16.70 19.97 16.78 19.36Q16.86 18.75 16.88 18.69Q16.90 18.62 16.96 18.53L16.96 18.53Q17.50 18.27 17.82 18.14Q18.14 18.02 18.69 17.97Q19.23 17.92 19.50 17.94Q19.78 17.95 19.97 17.84Q20.16 17.73 20.38 17.66Q20.61 17.60 20.77 17.54Q20.93 17.47 21.15 17.25L21.15 17.25Q21.18 16.96 21.09 16.74Q20.99 16.51 20.91 16.46Q20.83 16.42 20.83 16.32L20.83 16.32Q20.35 16.03 20.13 15.92Q19.90 15.81 19.71 15.82Q19.52 15.84 19.26 15.74Q19.01 15.65 18.51 15.71Q18.02 15.78 17.71 15.76Q17.41 15.74 16.90 15.65L16.90 15.65Q16.90 15.46 16.90 15.30Q16.90 15.14 17.02 14.45Q17.15 13.76 17.14 13.15Q17.12 12.54 17.25 11.98Q17.38 11.42 17.36 11.23Q17.34 11.04 17.28 10.94Q17.22 10.85 17.15 10.69L17.15 10.69ZM13.92 24.58L13.92 24.58Q13.70 24.80 13.44 24.67L13.44 24.67Q13.31 25.06 13.63 25.38L13.63 25.38Q13.50 25.82 13.46 26.08Q13.41 26.34 13.06 26.96Q12.70 27.58 11.92 28.66Q11.14 29.73 10.99 29.87Q10.85 30.02 10.66 30.21L10.66 30.21Q10.14 30.34 9.90 30.35Q9.66 30.37 9.42 30.51Q9.18 30.66 8.98 30.66Q8.77 30.66 8.32 30.72L8.32 30.72L8.22 30.85L8.45 31.10Q9.02 31.20 9.42 31.22Q9.82 31.23 10.35 31.41Q10.88 31.58 11.31 31.86Q11.74 32.13 12.42 31.97Q13.09 31.81 14.38 31.38Q15.68 30.94 16.18 30.70Q16.67 30.46 17.02 30.40Q17.38 30.34 17.87 30.18Q18.37 30.02 18.46 29.90Q18.56 29.79 18.61 29.82Q18.66 29.86 18.78 29.86L18.78 29.86Q19.04 30.34 19.15 30.50Q19.26 30.66 19.23 30.83Q19.20 31.01 19.44 31.34Q19.68 31.68 19.66 31.94Q19.65 32.19 19.92 32.43Q20.19 32.67 20.77 33.54L20.77 33.54Q21.06 33.76 21.23 33.87Q21.41 33.98 21.55 33.98Q21.70 33.98 21.89 33.95L21.89 33.95Q22.18 33.57 22.30 33.44Q22.43 33.31 22.53 33.09Q22.62 32.86 22.62 32.43Q22.62 32 22.56 31.54Q22.50 31.07 22.29 30.80Q22.08 30.53 21.70 29.73L21.70 29.73Q21.02 29.06 20.67 28.74Q20.32 28.42 19.73 27.98Q19.14 27.55 18.58 27.25Q18.02 26.94 17.44 26.83Q16.86 26.72 16.75 26.74Q16.64 26.75 16.51 26.72L16.51 26.72L16.29 26.05Q15.81 25.60 15.58 25.34Q15.36 25.09 14.96 24.91Q14.56 24.74 14.38 24.70Q14.21 24.67 13.92 24.58ZM16.42 27.01L16.45 27.04L17.15 27.55L17.92 28.32L17.79 28.45Q16.32 28.83 15.57 28.99Q14.82 29.15 14.70 29.15Q14.59 29.15 14.43 29.15L14.43 29.15Q14.72 28.86 14.86 28.74Q15.01 28.61 15.09 28.34Q15.17 28.06 15.33 27.94Q15.49 27.81 15.54 27.70Q15.58 27.58 15.68 27.42L15.68 27.42Q16.03 27.23 16.42 27.01L16.42 27.01Z" />
        </g>
    </g>
</svg>